<mxfile host="65bd71144e">
    <diagram name="Page-1" id="2q1nWeFOjrHke_GeI0AT">
        <mxGraphModel dx="1726" dy="530" grid="1" gridSize="10" guides="1" tooltips="1" connect="1" arrows="1" fold="1" page="1" pageScale="1" pageWidth="827" pageHeight="1169" background="none" math="0" shadow="0">
            <root>
                <mxCell id="0"/>
                <mxCell id="1" parent="0"/>
                <mxCell id="36" value="" style="rounded=0;whiteSpace=wrap;html=1;fillColor=#121113;" parent="1" vertex="1">
                    <mxGeometry x="-810" y="130" width="780" height="430" as="geometry"/>
                </mxCell>
                <mxCell id="8" value="" style="shape=image;verticalLabelPosition=bottom;labelBackgroundColor=default;verticalAlign=top;aspect=fixed;imageAspect=0;image=data:image/png,iVBORw0KGgoAAAANSUhEUgAAASsAAACoCAMAAACPKThEAAABOFBMVEX///8fGhcAAAD//v8eGRb///0hGRbkcyf8///mcicfGxj///z//v0hGhjncij//f701LvdayP96dz3///ocSb///kIAADkcizjdCUYExDpcCjhdCjddDH7//nfZhjmcyQTDQiamJb/+e7scCLuq4rrq4E1MTDu7u6vrqzFwcDe3t75487naBn98+L//PHbczXYfUtjYWGOjIupp6XT09J+fn25t7h3dnRHRkXq6urQz83rnXfptJz68M/ZilXkZwvblmzafFXbYSHv0LLffkDbdx3st5Trm2vlpnr8+ujcjlz/69Hvxazstonvtp7tw57hhUnzoGrNayX56cbpfFPLXhLebDT54dPqXAjWmm3ejU/npXDluZDIdj3WdETXhVcrKSjyzsLPUwDwjlJbWFX7xqY/Pjvp1bxuw67lAAAYCElEQVR4nO1dC3ubWJJFIMRFXIGQQCCQAAvbsiUk+RlbTk/siT2y4ygTr3c3memembhn1d7//w+26l4kP5P2bMtJpsXJ1/4cQRAc6nGqbkELQoYMGTJkyJAhQ4YMGTJkyJAhQ4YMGTJkyJAhQ4YMGb5jSLJAiEDgN5kS+q3P5vuG3DSMVnnlh3KLSMT+1mfzfcNoVv/wygwOg6OKJjS/9dl836DVysZhrDbi4I9/EKrf+my+bxC6nFie4odh8JI2jW99Ot81qt2G6ziO76rh6+Om9K1P5/sF5D36LnB8K44VxYlPKgKVH90vS5CCJgj989BRXc+LVVVJRpqgkcf20x6lcKEgC7R3Equ6qvi+o/ixWa5q901IJghbW3j3lGjXjC3Hs0JfCT3l8FXvrlkhQZJkaHImU0G0lwPLd1wl9v7khYoejCAxTt1QEqhmGJIkyDIBUW885p0LBMkeBZ7vhM6pGTuW7seNriAZqbtphFSJ3aqUR2fL4zfEWGylSoz+aeC5Ttx4e5T4qqe4yVEfwxiH9qZSXvlxYCaHh+b5W5Y1v+npflNoxpsLz3H95KLXfe36nuqr5ripNSUi0FbleHljEASJFep+qCRntiGQxQ3wkiZ0B8CVAtZE3yVhw3EUdVAR+v1e+d2rD2ZgWWqoKq6ieo34U0+WhMXlCpxwbFqhawU/EOPNRuIruhMeroDfNV6/jkPL08NQAfiq7idHraawyCWQUf1zYIVKHLw3NKlshm7sQNQyA8iNluL4euw5um55LiB5X5UWlStCUDg1l4MwdOKgbEiyfWaqlqP6lud5ThjqOgQyRw0dxVIUNd7oLa5mAK4ESlob4GdO2OhBNK++PUlcYEoFW1KgnFZDK4Ctvu9DqTjoVsmCWhVyJcu0Wml4utVQLvqgpWj1fRA6lueAhAcZAa44ePkfpu4rrhdfvm8a2rc+5W8BSbBtWdZsopHupQW1TfASimPQ6PZpEEMmjOMkMAfn745b/3niJVACKcHYri6oBwJRRGsSrdU9SxxFt5IRGJlMDdJtxGGAPI3KFZuQ3n8Fvo/hbNRsksXkSgNvonarvHJxCZUNcBWUq8hVU2qO/vvDq5Vyr69VITy1zk0XsiHI0H7VXjiuMPcRiWj9yvhlIwi8WHVdFQM30cALq4S0ur2+DBUhSvfWEfif5/mHp60qpIFvfe5fFZRS7EVp/Y/vz4EoN1QcT1cUpxFe9BhXEhU0W65SqmmUkP6ZaVmuHwZ/bC1cBpQ1jVRtKIYvgiAOQTqBIEcN5cZ/+WtfkikFm8MShlDN1qhkj8w4VMCqPlWqzUUrmaEktrsrG4GpA0OOZ7kYi/Qgeb3xskuMtLVABYqUQqb8xQRF6jjh4G3TWLAq0CBE6i1fBqHl+KGqAgm+Gx4Gzo+jcs+W5FvtdEMDNUF+vowdywHtVaYLxhTjyoZYjb7nYt8gtpLkw9H4Y0vAEHabK4HYdrNsqiDYw/ByLCxWUEcAV+//gjYVq4oPxXIw+On4LYj1PtWI1Ly9TGM3JeHt4NDRwbAuR7K9aLFK0ASjeXToW6GrK77q/fjuY8uWbbApSdbuNaUkSronCTjpn9TgbyC0Fs+uBAlc0FEh94Vu6J8etwjqLJnVhXd31CTjPPE8N3RAg4KWWDi7wmW+UeCDmnKU0HGCYGO52wLvw2gl3y2KNYGumK4Txh5wBXwuXsmMnnUJgslxfFXXVVUN3PN3WPNh4+rOqjIkgcqJ5zQU37o8Nqo4DrJwmVCTfzHjOA59x7IsVdXVJBicHb9pUsh7t22nCaXOKIBM6YbJeb+Kxc2icSVpVXv8d9MLcSqm4QNZvq8EwT9+sKuyfduubCwLN0IvVvzQPGbCbJ5c3Z+MwNRhoNrlOeRpUyaU7WZ01pe2ll505h9RUUd1zwaHIZhVHHuKojp6Yi53bQhYcroH/jRkapNx4CiOriSfWpgA5skVqSzfwbvxx0rf1gjLIUSQn3ThMpRkB7urIsf10nCOJzg7Ubs72kgSy/ctF/tS58d9QeiklTHl0zCkqUly65UZOhDXgrFw1+p+K2i1HNyD+eGncgvrqqdDFjqbohjli4h8JF6tz/EUp99RrWq98SszgWBkJeaoRYX27uZ0o8Yg2JokkWMzViADxBu95ly50uxyQ4HKQcHSHX56lgpxMdgY22jU2N940lHWRDGfY8jn8vliJG7P8Rw5wM8p0frll4PAM//aBYd7sSpuTbfi6JBtU3AIu9o/ClxLBY01mu/slSaUTYdBR6hImupDZbrSsnFy6dePgDJmV6wXU65yuQIgP3+yCN42wyD9yujT+z5BS751S6hmQ8xk7WRKuwPFtXTHa/QkY47BE7lSQ4TKlrT/BFyhacXmWa9atZ+kfOVdMXdDFeMqlxfn7YaoPIEJHIBpwh1aqovF4u0vIf2fRx8hdsB+zRVcZVW9YIXeV/a/BcgVyjsGxVEt4MrX8TdzROUb4ful6LUklgqlEtJUz6dcFUpRvTO/s0wBYkqjhiQZwsG+CMExP/sOKuysCeN/mhdnY9D0QmWQKJgABuU5TnzgwBc20OAmhGYSBEmsOJaqgJGp1qBCZLB7A4CLTILMv5b5ApUlOuWxU2MM5eqiWK+JUanAnXB//lwxaYITtO1Sjd2aq/Z0U6e4K3QDywuCwflKufXOhCsADXbUZ+Y4n6+fcqUo/vn50fmri0HARiaAq8PlPpmGdvlmLQS1ThNiqGBwVSVsiswB69FWx2i/2McgX4rErefsc/Pbk4uupyFieCVOSKURg5yI4ZYP/qfhOK7rxmZZe1A0/r+RcgXUnHRb1G613o4GJlCFn4CYmzIkabPsK/NlAlnCJiScaydi5z0NUMaeWCyJq88gGm5hnWfd2iQ9qeG1WL8atj4FuuP7ju/Eh4quAldqcg43+fFZ7n8dnCtVseJGhalfoh0PdHBCRY397rTpCB5n2yltwBT8JHCvbCaat8VcrpjLibtpTGtPRHGzfe9r5hA1IE5BwYKrEILwQoRvzBXhO/lX7ovFQq0jnwWO48Uge/wPjhWGrt/AQCLxM/7tmHKlWsgVMGFU+6PAQze0guPK8grHGCqy6T/RKumHyz9jHb8nQtoDrranhOxcrT280CGUP1tbS+vDzydWo32wDTtBkdR+fGARIyeF2E4gmyBXuVQywN0pgi2/EEaB4gNw5QLLIDf0Qh+EmDCntVTkSsXYjlxh5AT1WfFjn3E17l0eMimf/NiaPRpEgMvDBD80yxj6N2vIVT7an5Wp7ftm1Fnaj9L6J9rfvm9z6T/antSn+6xuDe+aIvxO17c2J4B9tNk9kakToAcphIAJAF06fg3JSdUVF9U1chVbl2+fhyuZtRqpbG/EIeNqpIFVY+SPzS6ZBki5dR7roavo3kaL0JQrCB/i0memV3cmWP6wiyuVCpEYLT0M+8O9SKylEg2LJHHvbklJt69EsRYBxAl8yyTiIXIHWASqQK8AV7uG/fb96UkQhExbh7HuK8nRGzJXrlgeBK6mM/PNTy7EK8UNlrWyGYL3h2owIlQyuOVUBjgA5niH7zS86C2IFXjiKNUfyc7tXSx/irlpBZTL18XJPTlhLBXFOka9qaCFg0F2uKF+uInbGWp7cMxV9rd6hOa3K6L2LUGMlOymQLvvX56Yh0nsqQ6E+EEXEva8NNbUrhhX6Wf2J7Bg11GSkdF/lVih7+rBq1bKpETGTFVApf+RNdNeiPkSu8i6uCY84OpgVbxR9FO6asUbskBYDidQIgE/udxNTZmLxJuo174GWcK3oasJw2Ieya9fg61DzYDSV9zUWLKWCI7QjM4HQeIeBn/sNrHXPB+qZrGdccUPKrU2QnAy5MoWQNRBRtFdp1tNE6H9MuEC7KJVxdHC9mpUwjPPF+s8ftzGCzHKPYLo6paL7TA6Z4wyIyzi0danpwixO1di5lZkMeqgBqIdjjJBq84jV+JeEzMkJWycgQi08v7d2Qif7bUpmdeYzFRfIVfoQhrR5O5l3FDZlBfRPpog8NAf/1xFu5I10mogUSDzR+ngPYgGlJ9Q5dwjSxLWxDpT8Wh0LGojFSDsS7X9mejZqUdsj+k+ELYKdwldEyHOFXj1VBI7+AEP7XuQELmxbd4JlTaDBhZFqVY15jUsOuXKB66g+qN9rfrmDCebQsfzywJpnQeeCjk4ecnNCh+CweaQYn3oEs6VMRFZ2C6V7lqWDJKxziqefE283t1e297dF6NiHrkqzToEnauoiLsUI/Fqb3t7bWmzOPVa4AK/oH0dlfidYGgLKUOQTba5RYqbd7OFBtZF8cElrIqIMa8KIvVBVfEGFTAaySb2yFQ9T3Gd+O89Sug4cNQQisRBT+DjFWeJYqmq6523sL+Fn8Hl5hlXYBq1GVkECo8obdBM1rlQaK+DaswXIGvVV1PpgP7F7OV6rc0uinb2ZmSxsLYjsoNDDbWOMNDx2Ob6Xo057H2q2FFmzW8ytzZyGttVNz6pEHDASvk8UF0dxKh3eEQlEJ4DBx/TUMxjWZJkKrUuLJWtO420NJJT4QCyVAn/3HZDGQrFfB58J4rYR+wRNcHYxQyPKZ7vt4TFZKFQF7duya5tLjVzvJW3zaJV6ab/QjdrLLzlI6ZWwAGlB2qFPsPjqDOuPP386PTl+cbrQ4jquGwZB2UZW2gvEwe48g+PZApVKOmauOqkWqC4qM1FBMalaWguIVmcw7Roi4o7ws0jRYI84WSBgwlYTNaZjriXFTihhfo1EsitKNqfjQeBU/IsUASrKjwsqJ4Ls9jueV4Catz1HQc8EvSTeYTxyyZlKEgtpZFs9JooVEeHFsar4LwPKTqd2TEwiKdc5er1A/Yh3a+VUE1FB3e/Ma21I8bDbhp57nVR20U8XCkfIc2btVRXTbkaFqdiCx1x9asN7sm81xcCV7HTwHa747pQeMbmSReXvDW7dQHVKPb+yiDrpNYrjzVsgjFuu5FT26lloc/xULSe2s/S3XhBZVagQPjpTK8a0tj9/useemEJazzB2Gfkgj9Oj7PDjpyi8FCoPBckCbkKmWBSLQtMyLU8v6Enl++xRwUBS16BOgfYNFeaIPS6jQ+qa7GR1rshc5tbFiZ3Xv4zPypG+w885AWnFQoU+JX5Uq1ztzySgGj4txDwQY8OIzwwqwrSzeviVLDCgYr1UkeYZ6f485CEKVcOFJy4ngOI48OTcrq+Tavl10wjqBs9yCnvAxxpdYIj+/4LXF4wsjBjYZ0mtK/qJZbXH3zlQW3G1WYNg3ht88Ey5E7EJBty1eHM3Gqtp5IhX2ct62Lt+it54Y1dWZ7nQLCy4thKLs+6UDHwtg9p/RijRtDxEVn7pyTEeTHzl/tvQ5B4zGLSAfNXB0sfVt7eB+cKtxirM5O5x1UnN+NqZ2Z7UzAnhipo64rHrWkb67mBdoXLEq4bhgEG98D0T84+arOzl/rGKMCFMMscEbnX8KCK19Nm1z2k2bBUgJyF7oUJrvQwSTEXKtRBlQ/r+ULxET4loYOBrMCMCft6IA2uuPHgagkP9jnxYA3VBNrx1wlZ3AdVdL3To9PTlysr448tDXvqaTzCgZ5BiL0zrJ/HpgdJUg+OHlUvPLuDbASGuKM8lqXYllI0oWAyqCVvm8z0pDp50BKFfH2HHxQTxowrus87MpAcJiKvrZ5hzegRpFyFqnfy1u5TScM2MlSg05kKQTOaxtEhe7bM/Aii3XNU14Es+Bja7CqgeKu1UzVQf2hX/FJL6DgHcKmP2RU4HvppgYn7PbCiQrE24bcOuBpy16sX2yjPClgr1va/RshKfZD3GTQKFMmUr4enloOPuowDHwpE7JNexKiuvEbvZmmkc6sy3Ra5xLpqp47yCA+oJcAYxAMMRdP2820zxSYY+mk+j75Msa9XyE1X42Fjp1bn4pSig7KyuiRufYXx7FkefDwEIYjUGljsMaFRt4GLFnryE3/rCNzMzq4405o0zeYgFCRQRSw830wcpNBAdANVTIQN61AI4nLM3e8j094FJEje1yvN1CpsZPVAEUob/PsmkJWHMulrhKxpvLrVv7q/A5G0o8TydSs8+sWEYtCyzOly7nC3JvJihWO6ZrDFHAW5qq8O7xwMVSaYQonZEr2OCkxY3Jb2lMAW3lBn+RSbfIWZZIDcPO3IsLvQXuX1ztcIWb/KFRUIJWUz9HXd/fHUBa68eKPFCsHhVh1uMbsM7kPD1Xo+1ULgKHkWu8TNO0cDqvLMrJiPg15FriJGqJT+Jyyt84Y6q69T4RmlvgyqM+0ypH3TFyJvPouTZw9Zt33wUa6g+tCqrY1Y0X3r5ERxXEU/XGbvMFuq805e/WqHK4zhvojtKij1jPQSeQFzE953JjxTIpv4Zetoh5ALa6toFfz5o+GeOBSuOVcHU2lfn/b9oJSYSobU63bFIogKXJt42MGeL57AlaQJZDlQXR9SoOKEvhWUCb7EbBdbUYyb+vaw3e4sXYk5xhVexVraVoGrEK+2cSySDg/2arUSLxK3+Iwl5MQiq1SiaAtXBYX2zlZevKIGprp8HvtX2+IskHMYqWSopZYGXlhkpvXsIesOV4/tAHbVBIllMq6gXgyV+B8tA7na4a3uArbG89fXkVgvYoezIO7LnEg+NAMVm1jf39ubXIkg5QtATZGtW7FvS80PorNY29/c27yGfYAXNq+Qr+eH06XAaBr+iWxcszSYL3FLY7EeSoRikYWs58yGs3gVAlefsWEqE/s88UMsFxXFT1bw+Q4BcxA3HaxlIojSiAJrk0tTR+GGBptrNSiBi2yX0k0fU0JO+cAW2weCXBFbx+tscQbbNqkV3UognRLv6dxIqiUmHMCA96n8tPnWZ+SKCvIosFTOVWyWBS7qO3Vej/HKhgMcEpOaMUlXT3PpZBa3HogsYGV7t/QpjiIgL0wG5KYJbo1xhZKBl4y3S/DUFKPNmQlhpwzpRtf+1lwJOK3s6CqjSrE28Fk0dlOxaZUu26FaR7MSr1gYaV9jGizmoxwO26a7MLJEcenmckABtCdiPl3HyfE1QEhwS4wrlPbDPG+p38SiqWS4VTDv8CSTwzm/54rvFJc7bmmGz3+PZP8UYBMQhKi5jLvxm7qFi6AsKhXwQkuRuMmjSIcHq6tNMcrx4TVcvCnla+Jk595SvrEr1tJZQPzDciQoC+RqCcugEquIbhTYEhMJxVutVIpeyG5HvfhsKovaskCxxgkV1fIrX5h/k4TjwFHAsHTL/Eg0YzqlswZxO8+dB5xLXJ2uFR+wlkO0335xjcMMTHXVQbdO1h/xkQMceODNr3okivtDI52UZ/mU42a+ZjP95PaElzFJPxQfthbnBGpTIpdNPtZ+2f3S6xJJ70RXwlDR4w3alG92HC5dT0dgVjdviOCOggGHru/uX+Hm+upk+3N3fWdr/6qGa61Xk60dQzCWGHBp52CL/bp9M3y9lm68Mxwy5LvBxwcPjz4XgF0RrfsScHZ2utyTv6B8afM0YG+TCkZUu9M+NnbWtpe2t9cO2vRmuYZ3ZGo8e4GyWn+xvtP+krA2HttHunnT+HPG7KeB2kTr99mKdp9+6RXohLQuYnBCn611/fqB2drC/QbyN7/c3wR8/A6fhYICuYqq/XMBSzKqZdPChftgw37KQsB+xLh63qnRrwtZw4lQNtZsw5/PxSvJMN6cJbqjhnE4ghD3q7MURh3zY178Ku3KrwkQuwipf29hBj9kTxTLUBB2Tc9TcE3141MO2a5B2QFi6zme9/oeIN1/+EbG1ycRUO1gbzgu46mOknzqP2VAp4PDrqVbo/q/dwBVhmDblGp29+h17OMr8ILxk3TxCxFlZTRZmAfZZXypxv+OxuXjlZNA931PCc2N3pPmvpbEOo7B7v36nr8X4MrX6J+BaQZJ7Lth3IiT8dPmVLeuVgFXD9ecf69gzbi/BbFlsaf9Q7dhnraeNjnQ5jDkRXmjmSxTIowSEKCqbrm65ycXb8lT3qi4KEHqBtg30wTsW0FtHTq6Fwy6C2Il/zpAM9jgg56nO1AIxn/5VBEW750jTwR7FeUPOA2C2Bj3m4v7ptwngFQrZcDx8fHPPQHfGyHP6xnP3x8o0WzW7pdIVTJ4LfStz+m7hQHWRGlTq9r4YsqMqy+BspEZtiCc/f+LMmTIkCFDhgwZMmTIkCFDhgwZMmTIkCFDhgwZMmTIkCFDhgwZMmTIkCFDhgwZMmTIkCFDhgwZMmTIkCFDhgz/bvg/gLmAoHHhqD8AAAAASUVORK5CYII=;" parent="1" vertex="1">
                    <mxGeometry x="-400" y="330" width="159" height="89.34" as="geometry"/>
                </mxCell>
                <mxCell id="9" value="" style="shape=image;verticalLabelPosition=bottom;labelBackgroundColor=default;verticalAlign=top;aspect=fixed;imageAspect=0;image=data:image/png,iVBORw0KGgoAAAANSUhEUgAAAT4AAACfCAMAAABX0UX9AAAAilBMVEX///8jHyAAAAAJAAAeGRrT09NDQEEXEhMVDhAgHB29vb2cm5sOBgmtra10cnMbFhfm5ubt7e319fVIRkb4+PjY2NiVlJRbWVoMAAXPz8/i4uKPjo5UUlLExMSrqqonIySHhoaioaE2MzS3trc9OjsvLC1qaGl8e3tgXl+BgIBXVVV4d3dvbm5NS0zfs+WxAAAN9ElEQVR4nO1daXuyOhCVgAIWxd3iXq1Va/v//94VJZNJyLDoq9ZLzpc+RYR4SDL7UKsZGBgYGBgYGBgYGBg8Eb3hvDmvd589jJdEdFiyC9z2/NmDeTVstszzrQt8l3kfzx7QK2HyyRwLw2d+9OxBvQwWCnkXAqfPHtaLYMVS5MVgX88e2EtgqmfPsmzDXz42FHun+WfWbx66NHsn/oz8yMFviMSFZzMb9Jf4gPXs4f1xzNHkY96h1dxMl0wQyIz+l4k+qCwOayXHmqEr5uNTR/fXMYHJ5/jI1u0Df8zYbxkYBXyaMclTsOWT0v151tBeAbB22UY6PuSz0refNLKXALC0VD4Yc4HMOk8Z2EsAtr5gpHyysc3ml4uIUSQBsXZL+02DGtL62FD5pMc/eTeaHwlBX135BOizF08Z2UugDvQ1lU9A9Coi2QAB/AXuTvnkgyuExmuQATA62ED+YMvtXtZ7zsheAnuu3nkr6XgLFMLtcwb2GmjZMP3w7idMYYVWAwk94a9iQsGLhMsqpdEIDMhPqoO2J/gbX7SXSVuw5/S136qPxl4cUG8cmtUmsYPcpSHz9u0vi7nikFbuvoUsCM8MOycS25OHD/oPYfUuyLL80A2Rr95yx+kvLJiNT7Fc9lNl4bxMh8iBzbTW0vtlvnqaV2W3QifNB710J4GrOc9nb88Y+d9ARPHHUs6WCXmq6vCqECJNiks8pVLs9Wx6olbYNO5s7RQfgac6YWq1RqghjvNXZQE8YoE0sTym+hBO+JASEhQh7Xw+ftR/B70pY1yDdhk7aiIcA8Sew9h3+2vJhNJd6eUbY364kOH+6E0JCGqeqGpcVJXJTsiSVLSpakgMYMrMRYaw0FOGYtFXWfuLkThPU477C0Q2jJT4ItTGqkfUs+k7wNYoZ00iWh8xyL+LbPrWkJCgFH5AiluldZc8+vgkC1U3woaMNz0Y3c5TMyIy6QPPVqAGfrsFQsKDDse/HDCgt9k1bMbYOhkrx0NdQZn0Teg5BsTSqdAR4/iH44WhfZ101nhr4c7dLb/ZQ1XRTPqGZD5HEfp4QPke6ZYj8O9y+hrOM3aTTL2PTnqBeElAu63uSF9bGENPpa/+djErvFWksTqAJE+1hiOSWHTtu9GHDfHn0dc87R/cKPNOBm161+Dmha9uX0euEBIiO8bd6OthN8az6Fu4TPYihyzlAP3iZ7zLa1QUhqiZCgh3o28Khrh/Er1JTP+x9M19nRM5UNylGxFRl9TjPteaw1/6Fnejz+IjD61Whz++h9LXJjzwPpuh6fQh/C1+gPjbw/GsVLZ70QfaqLNGRx9IX28teFHhAk/RFu8xPjgNojUKs2dEzO9Fnz6/83H0dYIMB/yJp7M06O7VaIjNjq15c4SrqINVxm3uRd8i2VF8Hx99GH1dbZRI4W/ENNFJ77RTBw4+Mytd4170JbqWFUpeoEfRN/Cz2Yvl2WaZjiNpkG0g3Zs+t42PPoq+b13QW+VPCBbHI08Lskunr6BvuBkdjrtpi07xqgmB5h7x0fL0decfq91u9TEv42RYyLW8/jlrinlEMNdnfbLw3NNnYgEI+jYtjg/ZiRhr8XbgeV5w2iOOFwa7i+Tci4TvxP9+JTu3MztfKlkBevom/PuthWy2d6bb00bkua4XMNZoyUNbkE5MSWO3HBauNvXJsHm6mE6cnPXANz1/7znsEfS9MTuBnOWxCKXd1mPj2M8V8bMvZs88/hcG6pw/+Mygr2vD95d4m57spSCtw4LzQ1gnZ9Mz+IjXor0VjyTqp1gK2eF8z6aGWp/lRjm09Ik2AFLV/3CbUkTdeGeFMgA7oS81kCyjbQCpUI6F2TukfpDPxtQjwJDK8JW2BQv5F/jsl8/hTl9t+RLY+VuMjr5IsIe9EB9aZeBkQ95GXwO8WgHaJzpbndbrbQf59K2yYtx1JtXk42s011LDITYtkGCqoU+kG0kdO3bE9spaw1vo24vKW+TwHhJ6m7vOpw/X3KddTREanRocqq/An/tVzKGbpq8LG07wXYC9eIycgSvoE5fF5smQzM17n85y6EO393R715tQ9zTWbNxsrRkVjlyk6dtCSQQWOx8kexY4B4C+MBRZNv7pn9BrEPQJiYdTFjMSxixvyb9A0LfKs1ahMiYdXCuNFH1Q7h9iW3+I2XOCywQP1B95oS/6HY/3n9wJud6Px+PvZBqo9CEZhcnoY/HuXm5mq4KEou8Tlj0Ro0D9cW4O8Kj0wVbkWFhRRYnCDlu/Rd3BoBuNlsoaQwXuhdRmJKPwJoW13oAdm5PeoDds7RULlaIPkUOsQXTGrQFwhb4DFC1hMYiXboD0qNp8KZk7iL4iRpuQUZJ2OUDZTVj8dX+kDYSgTxQOkalRULF1e/aPTB9sRb785MRexNry96WfVI6+LlyVrfBJImHMCeXZMceznaBPzGi3rT1BjO0flJRL9G20YlA6vlIvsEN+i1L0CXVZeSTAqu+ohi7eggn6mnBKqo8B/BwY8s0l5Zi+SCsGa6ith7tPXwF5N0rRB+pyIF9U/H7N3oW0knz6qPBsgVOKAtGHtiJ5ZF2xpLMCpeXoAxnlKZGYNqfV1k0NYc8S9M2fM/ucAeghTNEm4Wnp74a2kvRBgr4IZJSrpl5D3NXR3Uw8rPy9jzL477D3WcsGbEXqUwNFVK+GitTqwvQ5v/wXhFvlmnTG0wU7Pjn/lOQVtkNaOsyS27mE5xWGU5g+C/6GqnQQMSZ9m2rRouVf6H235pXVseJx/r3pwgc3YZYKeC548WJx+uCRpTiCGBM1d/LoE1aH9zirQ9B3TJ0DAyZyPUQujThWjD7LTdHHtT5qqoPJerXNuxQ2r0aRKAdBH9FzDO1t1FSflKeP/w0b6sX4ryebDfCthKIPeaS0wiPH41Jvbq7wuFjbX+BP+fId6HNAbbFXysWAPion8TuHPmQi6fx9eLn9Q3+fD9qdlFYRA+gjDOzyi5dFkNekCr8pp+9AjHids3jhCtqTJE+iv6S8zbGfp0gtKlKbocfJuzJyOn31Auj6UUZt5iP1bVn2Qnz9u6ZHnugoF+uYQayjkYp1FEghxkbbnpgRXJZRarywE9IskPTBlHVn0sVEOYD+ZsNc+tRImzhPH2lLbntzpG3wDomW0oz4SehJreoEsNmUsnmhV4McCxX06JtMgT+Gpk+N87qHTX1Yb06X2gBKEJseI70zPSgV5wWVNZS+9gE/VJtYICzwcg4rUc6DLwuCirC5XMIwx0hlGdjZWQYNOssgpRlk0FfbwaOV4rvAqjY2AN1oS9IHAtsP8Tl9SgNQmMlK9BjTSStA2rtg85/luAAV0tIRfk2N8ECe6JLeZvimh9VXMOhDeVM8A3miM/NkMrqQJL/X3ljFMqwyvQoKfWJGeEhjh6JDP22IYg9mSfpqM5BVSH8V/X80qsNMOBcz6evaV+b3+bfl98GMwI12iB7cl4/QjlKWvp7wMCKVUjTrT3WW/0KtgbKztPKyS8+LS5Nd+r7bzJtv12eXijJMNPaZyPiR1+9G0qPK0iekjoPa6WGPsvTtbh8nbuQkufW0WR7JoHJzm+vbK3ObkT9SzAi0Qk+aJhA4V/So0vTV2vw3Bui8vpg4ng0JcpOVrJrl5giWz6z3kLC6NrNezAjkMjqiRxkytl+NRqtvlpr6pekT9QuIjQl6KCfdf70bvU1/pO4WhejT13X473eu6/jh48QpIo7EVOgFgScW9A30iXmNpJKsxDrxzUDd8wvofQAlH/ExVUUOjFAYfRNKsYyfDufvCvoEVSEKeozJfcvfNvJcBhLmP1JN2/gBNW3Cp4M0V7KhlrNV8vvOKJ4aDh2QsO+qTymyLPrVXCMTw2R786Y6M/AOFZVTvh1gK1ffUCtWBW+jDy0SJNRn+tnOVleklz+8nveTzwjsu+qsNT/JtSdqdukZJQoTwMcieSpW2jf8ra7Kzk/oe1g1eZdpzTS1odZJC/zuoWto6PMK1HXsoZMKNtPqn4oP6SSEm+Q1snBzLwPacUr0MmjBYclM603fL80JYoRB0vJJd40ReL3xZdfaXgaDAC4gPefmL7O5xBXJxuBP/zf03dZJozSi6W8y/Nno7u1hOosv63Kz7e76QqSCfVxU93aTnpe3odeZPLCVSLfTue3FzkW7CCkOMtNF6IJs+iAurKSPmR5WCa7qoCaSN8k0y4ogp38fSp1F/ftAQla9f1+Z7pF90z1SQm8l9y7VSAG1d+nP3je9Sy9QFX2XHdMzMLNzbjoLpzLQ9W32grQE6WcUn1f3bYLFu4YHZGCpuku3VM96gr/q9vzPemNCShXpePo3JlT3VYLl3tcxmJn3dWCssL/fD10Xs+Nqst9a7N2XyWtX931F8ruKnK+jHKrTzauBeVcRoI2yOfYXa21yRG/K0mtz9dHeid1j/Yq/KeuW97QZ4LcE4mVq3hJYDFDopCT4mHdUFgLp6jRvSC0A837em2DeDn0TzLvJb4K+c2qM3j2Ct/83iKJf1bqgU1oMABMyvwKSISvsDsgHqHdqnOcbYt+V9SIXgKitkQUsCF6czmSgAoKPSiUKVJJX/e1h2SAqUURMyGx9meijShSu4TVDYM93nzq6Pw/cwtIODq3mZmrhrpxGac7GDKWmxoVqNq5HrXTiRSFIJfkqMkoNDC7Y0PxV+Y3jhUEU2Cv9lA0orIjakJt7B1UEC21tCF2lYSBj8qk2Z2G+8TKXwGYrNaL3jJevJKLDMilEcY/GUrsGcSP6ef224hADAwMDAwMDAwMDAwODa/EfkFPK26vFX+4AAAAASUVORK5CYII=;" parent="1" vertex="1">
                    <mxGeometry x="-570" y="330" width="180" height="90" as="geometry"/>
                </mxCell>
                <mxCell id="26" style="edgeStyle=none;html=1;exitX=1;exitY=0.5;exitDx=0;exitDy=0;" parent="1" source="10" edge="1">
                    <mxGeometry relative="1" as="geometry">
                        <mxPoint x="-150" y="380" as="targetPoint"/>
                    </mxGeometry>
                </mxCell>
                <mxCell id="10" value="" style="shape=image;verticalLabelPosition=bottom;labelBackgroundColor=default;verticalAlign=top;aspect=fixed;imageAspect=0;image=data:image/jpeg,/9j/4AAQSkZJRgABAQAAAQABAAD/2wCEAAoHCBURERcVERQXGBUYGRwaGhoaGRkgGBwcGxkYIBsaGhcaISwjHBwoHRgXJTUlKC4vMjIyGSI4PTgwPCwzMjEBCwsLDw4PHBERHTwoIygxPDs6PDExMy8xMTExMTExMTQxNTU6MzE8MTExMTE1MT0xMzExOjExMTExNTExMTExNf/AABEIAOEA4QMBIgACEQEDEQH/xAAcAAEAAgMBAQEAAAAAAAAAAAAABgcDBAUBAgj/xABNEAABAwIDBAYGBwUDCQkAAAABAAIDBBEFEiEGBzFBEyJRYXGBMkJSkaGxFCNicoKSwTM1orLRFRZzJCU0Y4Ozw9LhF1NUZHSTwvDx/8QAGQEBAQEBAQEAAAAAAAAAAAAAAAMEAgEF/8QAKREAAgIBAwQBAwUBAAAAAAAAAAECEQMSITEEIkFRcRNCsTJhgZGhM//aAAwDAQACEQMRAD8AuZERAEREARFC9qN49Fh5MZcZZhxZHY5T2Pf6LT3anuQE0RUqd4mLVxth9EQz2hG9/vebNBX02m2pl1LiwHkXUw+AufegLoRUu6l2pj1Dy8dgfTH52K8O2GP0n+kURkaOJ6Jx974yQEBdKKpcP3zx3DaylkjPMsN7fhdYruV29jDo4ekje6Vx4RtY4Pv9ouAAHfqgJ8ipJ28DF8RcW4dSFrPaawut2XkdZjfNfQ2f2ln1kqDGewzMb8IgQgLrRUm7ZbaOPVtWXnsFRf8A3gAWD6TtPCejLZXF2gOSF4Hf0jbtHi4oC81pVGKQRG0k0TPvSNb8yqeG77Ga7rV1ZkDuLHSOeR+BnU9xW7TbkowPraxxP2Y2j+YlAWYNo6Mmwq6cnumj/wCZb0FQyQXje147WuBHwVWu3KUttKua/eGf0XPqNzEsZz0taA4cMzXNP52HT3IC6UVFvftDhHWfnnhbxN+mZbmSf2jR3mwUn2Z3uU1QQysb9HkOmY6xX7zxZ56d6As1FjZIHAFpBBFwQbgjtBCyIAiIgCIiAIiIAiIgCIoZvP2kOH4e4xm00p6OPtbcEuf+FoPmWoCJ7fbbTVNR/Z2FZi8nJI9h6xPNjHeqBrdy3dnNgKLC4RUYk5ks3E5rmNruNmM4vd3kX7gvN2GBsw6gdiFUPrZG5gT6TY/VaL+s86n8I5KP43i0lZMZJT3NbyY3sH6nmq4sWt/sSyZNC/cl1bvCDerSwANGgL9B5Mbw965Em3dYeDo2+DP6lRhFsWGC8GN5pvySiPbqsHF0Z8Wf0K36XeJKP2sLHD7JLT+oUIRevDB+Ass15LG/vBhuIER1VP1nkAZ4w+5OgAey5+S8du6wumkNTJHla3XI95MQPblPHuHwXxsThDKeF1bU2HVLmX9Vg4u8Ty7vFRbaPH5K6W5u2Np6jOwdrvtfJZfpKU6jwjR9VxhcuWSfENvmRjJRQjKNA5wyt/CwcvGy4U221Y46SNb3NYP1uo4i0xwwXgzyyzfkkDNs61p/ag+LGrq0W8OZp+ujY8c8t2n9QoUi9eKD8BZZryWzQ7T0tc3oi98T3eqTkdf7DxofffuUY2m2VqYrvilkmj4m7nGRo7xfrDvHuUNUp2a2xkpiGTZpIeHa9g+yTxHcVL6ThvH+in1FLaX9kYDyODj7ytymxioiP1c8rfxkj3G4U02l2aZVR/SqGxLhmLW+i8cy0cn93PxVeqkJRmiU1KDJjhm308ZAna2RvaOq/wB/ArexbZrDsdjc+EiOot6bWgPB5dJH6w7/AHFQBZqSpfDI2SJxa9vAj5d47lxkwRlxsUhnlHncyYTjlds3UimrmukpSerY3bb24XH4tPwV24bXx1MTJYXh8bxdrh/90PcofDJT49Rvp6loErRfT0mu5SRnx4jyOhUJ2BxKfBsUdhtU68Ujso7A8+hI2/BrhoR39yxSi4umbIyUlaLyREXh0EREAREQBERAFSe9NxrsapKIei3ICOV5HXd55QFdipKiHT7YuzaiN7yPwQm3xQEq3k1XRxQ0sejfSI+yyzWD33P4VX6lG8SXNXkezGwDzuf1UXX0cKqCPn5nc2ERFUkFv4HhxqqlkXJzusexg1d8NPNaCne7CjvJLKR6IDB56n5BcZZaYtneOOqSRk3j4nlaylj0Fg54HYNGN8NL+QUAXQx6u+kVUsnJzyG/dbo34C/muevMUdMUhklqk2ERFQ4CIiAIiICR7I7SGikyPJMDz1h7BPrj9Qupt7gAYfpcIGR1ukA4Ang8dx596hCsXYXEW1NO+jn62VpDQecZ0I/D/RZ8i0PWv5LwetaX/BXSLcxagdTTvifqWGwPa31XeYt8Vpq6d7kGq2Ops1VGKsheD64ae9ruqR8fgvnfbH0FfSVDRZxbcnmTE8EfBwWDCm3qIgOcrP5gtzf+/wCso288sp95j/osfU8o2dNwy5aWTOxjvaaD7wCs61MMFoIh/q2fyhbazGkIiIAiIgCIiAKktmtNrpgeN5f93dXaqQqb0u17XcBI8e6SItQG/t8P84SfdZ/KFHFLt5EGWsa724wfNpIP6KIr6WJ9iPm5f1sIiKhwFZOxp6HCpZeB+sd+Vth8Qq2VsbK9G3CWGbL0eV5fm9G2d17jmFnzvtXyWwLufwVtheCz1AHQROcPatZv5jou/FsBVEdZ0be7MT8guhim34b1KOMWGgc8WH4WC3xWjhmIV9aSW1Tmm9g1rWC5ABNhYcjzN+PYmrI1eyR6o41tuzl4tsrVUzS97A5g4uYbgd5HEBcNWhguKVEU7aauc14ku1j7AODgL5HtGhBbwP8AVQzbLCm0tW5rBaN4ztHIXvcDuBBXuPI29MjzJjSWqJwkRFciF9wxOe4NY0uc42AAuSe4L4Vg7vKJkcElW8ajM0HsawXcR3k6eS4yT0Rs7hDXKjm0OwFRI0GV7I78jdzvMDT4rtYNsU+lqI5WVAOQ9YZLZmnRzb37PjZY8IllxUyPfVvhYHWbDEQHBvIudxN/68FwMRDoa5kNPVyyAvjaT0jtHOeAW3BsdPms9zlab/wvUI00v9OrvPpAJIpRxcCw9+XUfMqCKwN6Mn7Bv3z8gq/VcP8AzRHN+tnZ2Rg6SvgHY/MfBgLv0C1t78nT4xSwD1WxtI+++/yUi3Z0mepklI0jjyj7zyP0afeoxTO/tDau41ZHIT+GFvD8wWbqHc6NXTqoWXpEzK0DsAHuCyIigXCIiAIiIAiIgCpLfCz6PitHVDS4aSf8N4v/AAlXaqv37Yf0lBFKBcxTAHubI0gn8zWe9Ab28yLPFTzNGly2/c9ocP5D71Xyn0E307ZyOTi5kTST9qI2d8nKArd08rjRh6hVKwiItBAKx8L62ASDsZJ8HEquFY+D9XAZSfYl+ZUM/C+S2Hl/BXCz0lZJCbxutfiCAWm3C7TppyPEclgRXInRhxSR1RFI91yx7SAAAB1gTYDt7eJUu3oQj/J5Bzzs+AcPkVALqx94AzYfTu59JH8Y3/8ARZ5qpxLQdwkVwiItBEKx9kB0mETMbxBlHvGYfNVwpxuyrg2WSE+uA9vi3Q/Aj3KOddl+iuF93yQdpI4aLsbJQ58Qpx2Pzfla53zCxbR4eaarkjt1Q4uZ9x2rfde3ktnYt+XEYO9zh72OXUncG16OYqppP2dXeXLerY32Yh/E4/0UOUt3kNtWg9sTfgXKM0VK6aVkbfSe4NHmf0Fz5LzHtjR7k3yMn2z8gw/B5qp41LXyeNhljHmbe9RPcVhxkmqayTU2EYcebnnPIfHRn5lv76cRbTUEFFGbdIQXD/VxcNO9+U/hUw3b4N9CwyGNws946R/bmfrY+AsPJYJS1SbN8I6YpErREXJ0EREAREQBERAFwNt8M+l4bUwgXc6Mlo+0zrM/iaF318uFxY80BU25CuE9DU0r9cj8wB9iVpFh4OY78yjlTAYpHxnixxb7jZbmxp/szaWamcbMlL4x2dYh8dvdbzXT29o+irnEDqyNDx48HfEfFaemlu0ZupjsmRtERbTGFY7j0Wzw7XRD+N9/kVXCseZvS4A3LqWRNv8A7N2vwBUM32/JXF93wVwiIrkj1rbkAc9PerF3iuyUNPGePSN/giff5hRHZSgNRWxstdoOd/c1mvxOUea7e8uuD6iOIHSNpJ+8+36Ae9QnvkivRaG2OTIYiIrkQtrDK51PNHKzixwNu0cx5i61URq9gnRY231C2op46yLrBrRcjnG/UHyJ+JUIwGXJVwO7JY/i4A/AqZ7vsTbLC+jm1FiWA82O9JvkTfzUYmwh9PiMcBufro8h9pheC0+7j3grPB6bg/H4NE96kvP5O9vQjtLC7tY4e4j+qx7tsLzzPqHjqxgtZ95w1Pk3T8S2d5gL5KeNou52YADiS5zQB718baYgMGwboYzaeUdG0jjmcPrH+QJAPaQpOenEl7KKF5W/RCJ3/wBu7Rta3rQRvtccBFFqXeDnaX+0FfrW2FhwVZbk9nfo9K6rkbZ8+jL8RG06fmOvkFZ6zGkIiIAiIgCIiAIiIAiIgKT3zUjqWvpa6IcbAn7cRBAJ5XabfhKlu27G1lBDWRagBrrj2JAL+45fiulvKwT6dhkrGi8jPrY+3My+g8WlzfNRbdBija3DZaKU3dDcC/OOS5b+V2YdwyruEtMkzicdUWiJIs1ZTOilfG/0mOLT5LCvpnzQp9u6xNrmPpZbWddzAeDgRZ7f18yoCs1G54lYYs3SZhky+lm5WXGSGqNHeOWmVm9tDgzqKcxuBLDqx3JzeWvtDgVy1cla2N9KxmJmJrn5Wm7g0dIeAY4+t4KMVu7sk3p6gZTwEjb/AMbePuUceePEuSs8D5jwbOwdK2mpJauXTMCb9kbL/M3+CgNfVunmfK/0nuLj3X4DyFgrR2hwmY4eylpWhx6jXdYNGVup49rgPeVWFfQS078kzHMdyvz7wRoV7hak3Ly/weZU4pLwvyaqIi0EAiIgNigrHwTMlj9JjgR39oPcRceat5lHDWPp6tpvkBc3vzDge9pv5qmVYO7iaoALDG40xuQ82Aa7nlv6QPdzWfqI7akaMEt9LOpRwCrxB9S79lT/AFcZPAvF87vBtyPFVXjdQ7aLHGQxEmnY7KDyETTd8n4uXi3tVhbz6iamw4wUEDyJbte6NpIYw3ziw1u65HmVVmxW0NThQk6GgMkklgXvZJcNHBoDRwvr/wDixN2a4xo/RlNTtijbGwWaxoa0dgAsFnVK/wB6Noav9hSmNp5iK1vxPKxx7eYrhczG4rFmif2tAdbS5Y9uhI7CvDou5FgpKlssbJIzdj2hzT2gi4WdAEREAREQBERAEREB8kX4qh6gnZ7aDNqKaU37uikOv5HD4K+lC95uyn9pUd4x9fDd8f2tOsw9zgB5tCA5W8TCdW1cWrXgNktw+w/zGnkFBVJt1m1TKiB2GV/ptBZHn9dnAxm/rtPDut2a+Y3sdUQSHoWOkjJ6rm+kB2OHb381swZVWlmPNid6kRoKxcBwuLC6d1bXENcG314sB4NA5vPYPBY9ldlxTA1VdlZkGZrXEWZbi554XHILk0r27T1cnSPe2gpiAyNpyulcfXeeLW6aDjY8iuM2a+2J1hxV3SKx212tlxWozPu2JpIijvo0dp7XHmVLt1+B4jPK175p4aRlibucOktwjYDwB5kcuGqnj5cJwx+SOmYJG6dWK79Ptv4+N1ycZ29klYWU7BE0i2YkF9u62jfipRxSl4LSyxj5OrtXtm6KXoqQtuw/WPIuL+wB8ytmokbiuFukLQ2RgcRb1ZGcbHsI+ag2C4DNWPAjaQy/We4HKO039Y9wVojDmUlBJFFwbG+55klpJJ7yqzUYUo8kYOU7cuCmAUXjeAXq2mQIiIDYw+l6aeKO9uke1pPYCQD8LqxtsscfQMihpg1hLTra+VrbABo4X7+5QfZWPPXwD/WA/lBP6KwNpqvDDM2LEJI2SBmZudxacrieDgRzafcsueSU1q4NOKLcHp5I1hu388bQ2VjZQPWvld5kAg+5dD/tGHKldmPLONfc26+MmAM1NRCfGdx+GZYJtvMFoQfo7Q9w5RR3J/2j7D4qcpYnxEpGGVcslWC4jV1JDpIGQRcesXOkd3AWAaO8+5Vfvl2ijrJYqOmtI6N5LnN167hlbG3t4m/l2LUxbbzEcYeafD4nRxu0IjuZCDfV8uga3wt4lTPd9u1bQOFRVkSVPqtGrIr8SCfSf38uXaoN29kXiqW7JnstQOpqGnhk9OOJjHeIaLrroi8PQiIgCIiAIiIAiIgCIiAq3eHu3NTIazDzkqOL472D3D12H1X9vI2vobkxWn3k4rh46GshDy3QOmY9r/ztIDh32JPar8Xw5gPEA+IQH5+qcQxjaFwjawsgJ1DGuZD4ue4kv8LnwSbDsR2YqOlitJC4AOdlJjePZeOLCDexv87L9BBoHAL5kjDgQ4Ag8QRcHyQFW0e9ygqGgVlO9h53a2RnkePwWx/fvAmdZrGZu6mN/eWqQ4ju7wyclz6RjXdsZdH/AAxkN+C5w3S4YDcxSEdhlfb4ar1No8aTIntBvjuwx4dBkPDpJANO9sbdL9hJ8lId3NXJPgk0kz3Pke6Yuc43JNl3J9kqKjo5/o1NGx3QyjNYufYsdpneS74qN7qNcBlH2ph/CEXIfBDG8B4L1eN4Ber6p8sIiICS7ARZsQYfZa93wt+q5W1+GNxXab6K95Y0RtY5zbEjLE6TQHTi4e9STdlDeokf7MYH5nf9Fwdl5fpG1tQ/2HTDyjtGPksHUPvN3TrsOmzclT361XKR3MYPjquzh26PDobF7ZZiP+8fYe6MN07jdWCigXNPD8NhpmZIImRt7GNDR8FuIiAIiIAiIgCIiAIiIAiIgCIiAIiIAiIgCIiA1sQZnhkb2scPe0qtNyzs+EVDeyWQe+Jh/VWi9twR2iyrDc4Mn9o03OOo4dzs7R/u0QIa3gvVlqGZJHt9lzh7iQsS+sfKCIiAsTdjGGxTyHQZmi/c1pJ+ahW5YGfFKmoPsOJ8ZJL/APxUywqT6LgM8ztM0crwfEFjf0XJ3D4dkpZpyP2kgY09oYNfiSvm5Xc2fRxKoIthERTKBERAEREAREQBERAEREAREQBERAEREAREQBERAFVtFIMN2mljf1Yq6MOaeA6S9x8Q8eL1aSgW9TZd9dTNmph/lNO7Oy3pObxc0fauGuH3bc0BHtusKNPVF4HUlu5p5ZvWb4318Co0pjsvt3SYlAKTE8sc4s05+qx7hoHNcfQk7jbU6XXTm3eRuN4qhwaeRDXfEWWzFnWmpGPLgldxK7XQwXCX1kwjiBt67raMbzJPb2Dmpt/dGhpW5quoFhzkexjf0XHxbeZSUrOgwmLppDo3KxwjzdvDNIfAa9qT6hV2iHTv7j43uYk2KmgwylF5JSxuRvpBgIawW7XOsO+xU+2TwcUFDDTixLGDORwLzq8+GYnysoZu+2MmEzsRxS7quQlzWOsSy4tmcOAdl0DfVGmh0FmrGbAiIgCIiAIiIAiIgCIiA4W1W00OFwCaobI5pcGgMALrkH2nAcu1RAb4aU6ilq8vbkj4fnt8V7v0/drP8VvyKl+y1Ow4fTXY03hjv1R7AQGrsztrR4kS2nkPSAXMbxlkt2gcHfhJspMqU3nYezDsTo6qkAjke67g3QEhwF7DtDiD2q4qiqZFGZJXNYxrcznOIAaLcyUBsoq/q97WGxvLWulkANi9kfU97iCR4BSbZ7aOlxCMvpJg8D0m6h7fvMdqPHgUB2kWpiFfHTROlne1jGi5c46D+p7lCRvdw3PlzTZb26Tojk+eb+FAWCsbZWkkBwJHEAi48QuHi21tJSU8VTNIRFNbo3BjzmzNzA2AuLt11VQbrNr6XD3VLqyRwMpaWnK95Nr8SAe3mgL/AEWhhGJxVdOyeAkxvF2kgg2BI4HUcCovjW87DqWQxmR8jgbO6JuYA9hcSAfIlATdFEot4OHvpXVLZvq2Oa14yu6RpcbNuy17Gx14aLvR4nG6mFSCeiMfSXym+W175eN7ckBFtrN2tJiDjILwzHi+MCzj2vYdD4ix71Dmboq2Pqw4iAzu6Vv8LXEfFT523tAKP6WZiIi4sbdrg9zm2uGsIueI14Lq7O45FiFM2phDxG4uAzgB3VcWm4BI4g80BXVFuYY52asrJJDzyNy+Rc8uJ+Cnez+yFFQf6PC0P9t3Wf8AmOq5GK7zsPp5TGHvle3R3RMzAW49YkA+RK7Gze1lJiTSaWXM5vpMcMr295aeI7xcIDr1dSyJhfI4Na0XJPAKKS7fw3PRxSvaPWsAPIcffZau8+VwiiaL5C5xPeQNB81LsLpoo4WCEN6PKMpAGotxJ5kqqioxUmrsi5OUnFOqNLANoY63MI2va5lswcO3hYgkcl13yBoJcQABck8APFfMdOxhJa1oJ4kAC9u2yg+3Nc+aojoojbOW5+8uOgPcBquYxUpUtkdSk4xt7s6NZt1TtcWxNklI5sHV8idT7rL2i25p5HhkjXxE83jq+ZGo8xZdnCMGipYwyNouBq4jrOPMkrDj+BRVkRa4APtdrwBmB5a8x3L24XVHlTq7Os14IuDcHmFx63aGOGqZTPa8vkDSCA3L1i4C5Lr+qeS4G77Enh0tJMdY9WX5AGzm+ANiPErBtN++qf7sf88i9WOpOL9HjyXFNeywkXi9UiwREQFab9P3az/Fb8iubg+850NLFE3Dal72RtaLei6zQAQ4NJsfArpb9P3az/Fb8ipnso0fQKY216GP+QICt8PwGuxvEI6zEYugpoiCyM+kQDcNAOuptdxtw0C93q1UlbiNLhkbi1jyx0luZcTYntDWgkd5VvqmN45NDj1HWyA9EclzyGQ2cL9tnAoC0cM2fpqaFsMULAxot6IJPaXE8SVU21dIMCxunqKTqQz+kwaN9INkbb2bOa4DtKumGZsjQ5jg5rgCCOBB4EFU3vPnGIYvR0UHXdGeuRrYyOaXD8LGA+aA7G/GGWShhdGCYWyZpLd7eoT3cfMhSDZbFMMr6ZkdO2G2QNMLmtD26atLDx56i4KlbomlmR4DmkWINiCLa6Hiqo3k7CUtLTuraO9PJGQcrHEMdc26o4sd2ZdO5AWlNQRPY1j42OYy2VpaCBYWFgeGmiqDcjQRSuq+ljY+zm2zNBtq7hdWNu+xOSrwunmnN5HNIc72sj3MDj3kNBPeSq/3EuAkrGH0gWm3Pi4fNASPexixw/DOjp7MMrujGXTK0gl+W3AkaeZW3u82Qgo6KN7o2umlYHyPcAT1gCGi/BoBGniuZvvw182HMlYCRDIHOt7Lhlv4Ake9SbYbGo62ghfG4FzWNY9t9WuaACCPK6ArvfZs9FBFHVQNEbpJOjla3Rr+q5zXFo0uMh94Vg0Y/wAytH/lf+GVCN/GKxmCGma4GTpekcAdWtaxzRfsuX/BTmi/czf/AEv/AA0BV26DZplfnlqx0kNOcsUTtWZ5Os9zm87AM8b9wUs3sYiMOwxsFI0RdM8sswZcrLFzyLcybD8RWruD/wBBn/x/+Gxe79sPdJRwzNFxDIQ7ubIALnuzNaPxIDe2RrsHw+kjibVUpflBkeXNu95HWJvyvoByACiO1GJ0lNjVJV4ZLG7pHZZ2xkFvpNa4kDQFzXe9t1OtndnMJraWOeKkgc1zRfqi7XW6zXdhBuuq3YfDWkEUcIIIIOXmOCA6WMYVHWQmOUGx1BHFp5EKF/2biOGgmB4miGuW19O9h1H4SrBdI0EAkAngL6nwHNfZXcZtKvBOUE3fkj2y+0rK1paRklaLube4I9pp7O7ko5BrtAc3Jzsv/sm36rzBsr8ckdB+zGcuI9H0AD5F6+tsad9JXR1jBdtxf7w0IP3m3VkkpNLyiTbaTfhliItTD66OojD4nBzSPMdxHIrFjGKx0sLpJHAWGg5uPIALPTujRaqyFYOLY7Ll4Xff8v8AVfe0376p/ux/zyLNu/oXySS1kot0lwzvubucO7QAHxWLaX99U/3Y/wCeRab769Izfbftlgr1eIspqPUREBGtttlm4rTthdKYw14fmDQ7gDpYkdq7GFUf0eniivm6NjWXta+UAXty4LdRAFx9ocAgxCAw1LMzSbgjRzXDg5juR1Pjcg3C7CICrot2tZADHS4rLHAfUs64HZo63yUi2P2Ep8MLpGl0s7/SlfbNY8QweqDz4k9vJS9EBFdsdlHYgYnx1UtPJFmylnonNlvmAsb9Uc+1Rt+7OepLRiOJzTRtN8gvr5uJt42Ks5EBrUdIyCJkcTQ1jAGtaOAAFgFXeLbryat9TQ1b6Zz3FzmgGwLjd2VzSDlJubHgrNRAcrC8L6KjZTTv6ezCx7ni/SA3vmBvcEG2qhM+6SFsjn0dVPTtdxY03A7g64NvElTvGaR09NLFG8xuexzQ8cWlwtcd+vHkq8bgm0cI6OGvikYNA6QMLvG743OPmSgI/vN2dp8OoYoYS+SomnDnySOvK8MY8ceTbvFh81bdDQXw9kBOUmAMJtwuyx07rqGYJu6lkqm1eL1JqJWkFrPUBHC/KwOuUABWWgItsNsk3CYZImymUPkz3LQ23VDbWBN+CkNZSxzRujlaHseC1zSLgg8QVsIgKwfutfBI52HV81O1xvkuSB+JpF/MX7yupgGw08FSyoqsRnndHezTfIbgjrZib8VO0QHA2i2dbWljjI9j2Ahpbw1te47dBzXGOxk7hlfXSFnZ1uHgXWU3RdrJJKkcPGm7ZycCwKKiYWxAkn0nH0j/AEHcFv1lKyaNzJGhzHCxB4LOi5cm3bOlFJUiFSbDmJxdSVMkQPq3P8wIJ81xazZurjlD5mfTGjlndr4jj5Kz0XayyXJN4ovgjGAbSiaUU5ppIXBpNiBlaG+QNuA4c02g2SFZOJemcwhgaAG34Fxve49r4KTZV6vNdO47HWi1UtyE/wBxX/8AjZPyn/nXa2ewJ1HnzTvlz29IWta/DU9q7iI8kmqbCxxTtI9REXB2EREAREQBERAEREAREQBERAEREAREQBERAeL1EQBERAEREAREQBERAEREB//Z;" parent="1" vertex="1">
                    <mxGeometry x="-260" y="330" width="100" height="100" as="geometry"/>
                </mxCell>
                <mxCell id="12" value="" style="shape=image;verticalLabelPosition=bottom;labelBackgroundColor=default;verticalAlign=top;aspect=fixed;imageAspect=0;image=data:image/png,iVBORw0KGgoAAAANSUhEUgAAAMgAAADICAMAAACahl6sAAAAflBMVEX///8AAADT09Orq6vv7++Pj4/6+vr29vYEBATz8/N+fn4bGxsmJibu7u66urq/v78WFhZwcHB6enorKyswMDDIyMhmZmYNDQ0hISFJSUlhYWGXl5dSUlLg4OChoaF8fHw5OTmwsLA9PT2JiYnY2Njk5ORRUVFERERbW1ulpaWyFvhPAAAD30lEQVR4nO3a63KiQBAFYBoUERBBBYwIipcE3/8FF4jJGpnhJgxYdb5fqWQhtictszMtSQAAAAAAAAAAAAAAAAAAAAAAAAAAAAAAAABwN491b+cdosvQL+QlqpX4RL5ha0RmoA79ctqSHZtsz1qkX6qX4ERrd+hX1Mb1vCbtM35IwTK01buFMo++iI7B4um73puFkjXGVmd1t7V9n1DklUG+t+T89F1CuU43aWMoZW/6G4Qyu31odJwuKv7Z2ENZ7tLGWNV67I04lMtqS/6O1xgFIw1lMT2S9nGbNbkmDcVpdEHvVOVTo8302vS6NBRzRKEsPZ+Mldzu2i2NJJRQTxsjsVpfP45QFsGR6Cuav3STwUNR471G63PjxiiYO0OG4nrp6txp1xgFg4VyPZtZY3T3PMtCqf0A6oy60l5ujIIhQknIC7u/60x4KDLp/dxYdCgK9fXGpaFsBYai0FfH/fHf0iSnt5s/U4iM9k/yCiJDUSha06639801yRMTikJy+gHcbyhCHvRpIen7loYy6es3uIbd270f5IVIvYZi0a2vWz/4LqTXUFya9nPjP34K6S8U2RRbSD+hzG4fZIsuRFIPmhF3efN8P0kPhRfSbSiXw30/aTJAIZKqdxNK9t/mn/2kQQpJe3NDSdUWaYWn/aSBCslCsV8JxX3eTxqqkJdCYe0nDVdI21A4+0kDFtImFP5+kphCYmKvTRuG4manvQ77VmIKCbWEsw9UP5RQN0nj7yeJKUTSacPZmMtCUSqvn0cnolPEeIy69z8zQYVIsa3p/FD2paGoceKTqTP2k7KUvO8vRRUiLRJ+KOeyUPLG8BiNMQmylIL7x5ewQtJQjOah5GMQ+7h4Wf7x9ZiSwEIah8Ieg8gwUhJZSB7KgRfK8W8oKncMojiskrlQ0NnLrGGx4x7LZqH8nrXLDmcMgpfSdeO/furSSFkoJ9JOzvm82hvp6pw1BpGndCimtPR8v7dtDZ4JPxTJXZ1sIm27ZzVGPqzCOJPPl5C7Hjb7K1XMXzF/lA+rfCiFnfdOjiRbKwuFJR9W2RSHVTo7kmyv2VCcwTyTL1tCilMzFOsz64mo2Mjh2WQ/KcWrE8pVYx51fS8hAxGbvXXMq0ORySg0QP6kZC4hh5OFUn4CeHn+OJJ5S8hhNZwq4S4hR8CqfSzLX0KOQ81Q+JO041EdSvkk7XiUh1JjknY8uAMMNSdpx4MdSoNJ2vEohPJ78vFusvmr3054PPl4P0uT7L0eRIFzajVJOx5qnGwp5R8PHQ0MDmgWhu/zGQUAAAAAAAAAAAAAAAAAAAAAAAAAAAAAAAAgwj9vZz+bLROgjAAAAABJRU5ErkJggg==;" parent="1" vertex="1">
                    <mxGeometry x="-810" y="330" width="240" height="240" as="geometry"/>
                </mxCell>
                <mxCell id="14" value="" style="shape=image;verticalLabelPosition=bottom;labelBackgroundColor=default;verticalAlign=top;aspect=fixed;imageAspect=0;image=data:image/png,iVBORw0KGgoAAAANSUhEUgAAAOEAAADhCAMAAAAJbSJIAAAAe1BMVEX///8BAAIAAACLi4ygoKDCwsKGhoYXFxhra2vb29zS0tK1tbby8vIuLi4vLy9TU1NKSktdXV0+Pj5xcXEdHR67u7t8fHzLy8vr6+vW1tbi4uL4+PiRkZG+vr6jo6OZmZkMDA0jIyNvb29FRUViYmI3NzisrK0hISE/P0B3riQyAAAF80lEQVR4nO2da5uiIBiGi8qyg3auqabDTtPu//+FK9hBxUEEFGye+8telYPc+yKHly5qtQAAAAAAAAAAAAAAAAAAAAD4DewOnhYH37ZBASeiTce2g5AeIW1NCPm0bSFiqi0YKU5tW4jQDyENom0LESYM2+9v2LZtIeJhqNaLNsiQ9INJaYIlaZDhQeWPj00yVBq1uzB0ARgKgaETwFAIDJ0AhkI4w+2mZ5W8hErK0A9nkoSbHMNjoJ8R0WW9ExoO5UtacYb+mZhZiukQVeEkNpQuiTMc2tdjRGGsxnDriGAE6VZiaCKjZQhCthUYfrgTwqhyiwoMOw4JZnJ/hgznLhm2yYd5w1cjrWqgkyFdO8OGzw/61lg+FcnIvOHrg2QDqZmgHsOhFTkGDFs689KmGPpfoSRfmbWFE4aTYsOyOGYoEcOywLBmYBgxnMr2NNMevb55hj350YKV4ZihRF/akx/xXTSUiiEMnTaUaqWNfg4lYrghS0mcnJdi1qaAY4aIoQLNM9xM5pIE7CuljhlitGj9jhG/0YbvH8P3Xz3J9KXzqSTzhq6AywLDmsGsTQHHDKXGQ9m9uqb2pQ0fLTCnacHwPQwb/RxKGH4MFpIMXNwhff/xEIYKwLBmMPNWwDFDxFABxwwRQwVgWDMwVACGNYO+VAHHDBFDBWBYM2ilCjhmiBgq4JghYqiAY4aIoQKOGSKG+Yx7t+5t9cMRpY4ZqsSw+33fTDsv8iQbb3ijbvHHEYMxd4FjhqVbaZg6JyFy3GSvcMywZAz3F/bRvZXGjqvMNY4Zlozh5O43906HK7nbZqLYaMN1rNS5HxPSu8Sv96mLmmzIziohJHEk0ZUppk4NyTW0ePZ1KcMpE0yd8zLg38oznA1ssTiXMNxFbxPSS1vTAtLX5Ri6cfJHseGJyoSZRrCib16KDNXhKqpeUrFhSGW4c8hZYJPN1KghIdeVv/s4zg2coV5s+Je6cHOYGfVODhgGDSO/x/02Z11FCUMWraxg60Ayf2zS0HsVuw80FZUNT9UZkhktbzQI17SN7DUbqoRhn3Cje4RHDZMzN2OG7Gb7eCEzaMWdWrWGU2rInRb0Td9NjujmDNetx5FvhM0q+lqKEoYsWl4rTTxIJiNrznDz+h0KNpPyqjbscTIRC26QNGXI+u31c0ZypEtTrfIkZm1sWnpNvbUh2cfQoOE+nhU+6zKq3JDVPdVO47l4n7+Kot1Kt/FYFL+4Jc6zVytOZvW0ZPPs2XPUP8aLjfRUNee8NsUqRfMn//kcjuMnQqM4GUP/vuZdb7b7sX+axC8zR4O+DPX6vjYbItb3W3Zf1VIt7scz95KskkmMexojOxd/GYaahmwlemB36iYL1iit0PCuGEvG/86yl7wMT7rN9JuWNx6dPmkHvtMM4TlZSUGubRckbhRpHrkrXobaR9Am24emYObHOoQZ4dv5tbpcbPnPE2fQ6nUNtAaXe4Zn39UVTA/kBVn9YSe8XP7+W4+4SWrGcK+/5CFBZ7W5LXSXwNmkp6GdGXZUsm5DNbLE554mY4atcWgiAaEHrUEmu2T01PnhQCN79EOFS/LvxlXSpGHE2C/HTjSQkmHZ0vIqadiwNH9+NjT0c262DQWjzJsYXt/eUHBa/ZsYXkQ9Db/rrIBlQ2He0MzJ2ZYNhZNsbs9ZCcuGwowTl+1TwrKhoCuNKhUol5vAsqFw1pZeq2vewpJhQVpU7XcnM9g1LEhgGRkRrRoWZnfUqpXGpqFfuJ7M2R4qjUVDmeyVgc7GnuFOKrNDtL+CZM3wIJnyIMTLzYJJY8dwd5LP6URXejpPY+2GW28wbZfLWdEEzNcfj/v2ixy1G/pKCUP6R+viwvOwYVjaL64iDH8AhkJgmAcMYViah6HSWvOoOh4qsSguPI+HYT+YlCZYqszaxqooTk8fbUbtv7WtYFg3ZjY1bVuIMGJoZoOhIkwYGtpCqQjNLzPFhlPbFiI+DXz338z+QmV0lMenJ0a2FyrEP3hadCz+eiwAAAAAAAAAAAAAAAAAAAB4P/4DwiWQNiyPfR8AAAAASUVORK5CYII=;" parent="1" vertex="1">
                    <mxGeometry x="-160" y="440" width="130" height="130" as="geometry"/>
                </mxCell>
                <mxCell id="15" value="" style="shape=image;verticalLabelPosition=bottom;labelBackgroundColor=default;verticalAlign=top;aspect=fixed;imageAspect=0;image=data:image/png,iVBORw0KGgoAAAANSUhEUgAAAKoAAAEoCAMAAAD/p5rXAAAAclBMVEX///8AAACPj4+FhYWLi4vLy8v09PTi4uKYmJjq6uorKyvl5eXZ2dnc3Nzx8fF6enqjo6Nvb2/R0dEODg5ERES5ubllZWUcHByvr6/BwcEUFBRqamp0dHScnJwaGhp8fHwvLy8kJCROTk44ODhWVlY7Ozv0dcfzAAADq0lEQVR4nO3Y63aaQBiF4VEjJw2ggoqSpuZw/7fYpMaIMBNpu3cGV/f7O+vLI8zIoDGuwjKqi2Q3+rZ2SZFFZegE2QvK9Y/vM1622ZdBb2iY+WKeepz1gs7XvqHvre+vQtPaN/JUdmUZbH0Dm22/kg7i3p/bO6Hhyret3Q/H9lr6htma34x0NFp2pXPfJledb62Zb5G7uEU9+Aa5+3kpHcwXv62sKa18a76ualA3vjFfdzhL73xbrjU+SVPfkuult3JRPy9r4NvRpyN1UAc/V8cD4ZNvRp9eBv5IbRbfyv0/roCBnfxd7Yf/pDr19sSKfRv6Fg/3SN3u3pS+CX0rTe6b0LfcRL4JfYvM2Dehb2NRCYnKSFRGojJqUBfL6QBb7i3Uz58FhtXEQr3zjbInKiNRGYnKSFRGojISlZGojERlJCojURmJykhURqIyEpWRqIxEZSQqI1EZicpIVEaiMhKVkaiMRGUkKiNRGYnKSFRGojISlZGojERlJCojURmJykhURqIyEpWRqIxEZSQqI1EZicpIVEaiMhKVkaiMRGUkKiNRGYnKSFRGojISlZGojERlJCojURmJykhURqIyEpWRqIxEZSQqI1EZicpIVEaiMhKVkaiMRGUkKiNRGYnKSFRGojISlZGojERlJCojURmJykhURqIyEpWRqIxEZSQqI1EZicpIVEaiMhKVkaiMRGUkKiNRGYnKSFRGojISlZGojG6cOjHBADOPFurQE5WRqIxEZSQqo/+auppMwzgOq8n1P/2z0NTn6fmgUT1DR4Op28tT0RY5G0tdtk9wS+DwsYlwwzpSqDUyD7BZ264UuQZyU6JGFfZTfIGaX5o5apTl9kOXwL2JQZOe7FJjnkD/IDbmgJmUu6g5Zv7hbdQCMyp0UUPM/AVuj7qkxmDmv3+/gBYrmxq/j3pBTNq4qRvE/OOuxawA8lXdAmcFLmkAGf8xDHIMqFzUCjF9jPzctYtaI6Z/3jPEZd05VkCwAwyPzvMSwLgHOxVxcjs05k0B80apTZoiJl/sgwww8NVGfQUMzi5HIpbAuitdA8Y+t2bOADNHRWsNpJBzddz+/JAj8KpsjixXiJnz7r2CbK1Rkn+cBsMcsaYcLxeoV4ukWCwKjNN6TX9fCMgNQ7aZ2aUGs2GB7Z1QA3sRwmT9YeFcuvcNPFVbn36XuwvyVvCvvTh+VmgVZp731+rR+f7bKahqyBvR33Sonad057Uto7pIEKfNnu2SIotK9/X8BYQJYHbh2vUjAAAAAElFTkSuQmCC;" parent="1" vertex="1">
                    <mxGeometry x="-160" y="250" width="70" height="121.88" as="geometry"/>
                </mxCell>
                <mxCell id="17" value="" style="shape=image;verticalLabelPosition=bottom;labelBackgroundColor=default;verticalAlign=top;aspect=fixed;imageAspect=0;image=data:image/png,iVBORw0KGgoAAAANSUhEUgAAAQMAAADCCAMAAAB6zFdcAAAAllBMVEX///8BeNYAd9cDd9T///zd+PoAdNT7//7r/Pv7/f9wrdIAa7tlocalzOXU9P4Ab8AAb9D9//gAZsFTmdU4iM0AcL/1//8AdNIAa78Adtv//fgAaMD7//uLts0yg8c2frQ5iMh1rcZ1qsoAc9kAb7mSvtdSk8lMk8RXlcBLl9fG3umbyeWnyNgAassAYLEAV6BXl7vh8/mmqUN8AAADAElEQVR4nO3cD1MSQRiA8b3b5d5DM4HygOVMgspSyfz+X67d44zRMcd4b1r+PM+YAw6+HT8WUBzWGCIiIiIiIiIiIiIiov+Wc80nTUakriunnBIPxEsSgqqScB02hfNPzq1rTq0/Ve0l2q83p2rvxLcXeNrjRdeD2y9Uz/+TzYkUBnL56aO6q544Ka+0Y+bz+ecUBmaxzPMi374it9PTXljHvfOpYkzM5oN3SQxOlrlVlgcDceVFphxjs3Eig8Lmma7GwJTn2jnWFhhggAEGGPxBwAADDDDAAAMMMMAAAwwwwAADDDDAAAMMMMAAg7ePwSBjHWCw7wYWAwxiGGCAAQYYYIABBhhg8NKRY4BBDAMMMMAAAwwwwODwDAa7YpDyb23jHTFIuQ5eM7DHYcDjAQadGlxgcNTrwNqODPJsmu7nA9179rN8Evc/KL8o3/sfSmVQNFcj3grr2+L5bbM58cJHLMseDV68bf/+zZuPdk6q+8JiMJ2OC13xviC9yVI5prCJ9sH4+u2DuuvS9031/Vo96MdlCoLwYGacdogMvdSui01thvoR2ySi2thIJG5sFId435zZcmskEenXkmZ/pNrpN3cSF6++VJoZdR0Wk1Mvya0Mwk2nn9I3JqwC7aGYDu6W2+Rvbs/U3ZXem+pOPen27CaFgTlZDdT9bPZHOtUPWv1KY1C86TWCV3/GnTQGx/z7Qtbuk7XPBt28lrbfBqwDDHgNpTHYmb8vsA4wwAADDDDAAAMMMMAAAwwwwACDXTbQHjkGGGCAwSEZ8LyAAQYYYIABBhhggAEGGGCAAQYYYIABBhhggAEG/2igPfQDMNAeOQYYYHA4Bjwm8tyIAQYYdG3QwXs8831/XnD6vcIwwCC1gfrYJ3u+b95iNBvpmq3ue0aG5b12zmg2S7MXyMP7DhInvupi0EMSA3FD5YY84fvDBG+ccpMrHzdq0o3YLumHf/VQUx3nOCMBQVfcdCuJgQT9vq6401YkMLoxYRXUKQiIiIiIiIiIiIiI6Cj7Dc4v1CqgudasAAAAAElFTkSuQmCC;" parent="1" vertex="1">
                    <mxGeometry x="-810" y="120" width="280.36" height="210" as="geometry"/>
                </mxCell>
                <mxCell id="28" value="" style="shape=image;verticalLabelPosition=bottom;labelBackgroundColor=default;verticalAlign=top;aspect=fixed;imageAspect=0;image=data:image/png,iVBORw0KGgoAAAANSUhEUgAAATcAAACiCAMAAAATIHpEAAAAclBMVEUjlu0klu3////+/v4kluwAj+wAjuzq9P3H4fkZk+zc7Psymu05n+74/P6z1vcPkexss/Hy+P2gy/XQ5fqHv/Pi8Pyz1viDvvPY6/twtfKn0PZEou+82/hLpe9msPGOw/RXqvCXx/XC3vl4ufIAieukzfaWxbYTAAAVu0lEQVR4nO1di3ajupIVILDll2I7TmLH8SPp/v9fHKSqUpWEIH1n7izwWq4+JzZPw2bXU0JS6ilPecpTnvKUpzzlKU95ylOe8pSnPOUpT3nKw0hR6MILfgzLP+2Ee+nOGrlK/X6SsaEZFh1uQ4cPvEel0/tT9B9vSAFw25X/VPIY/FSF1umhvRCODc2QMGZ9ZPqVGSy6MCzppt6z6Z71Y0MzKAXQqgeG5HY0YhwfoALySr0cX0COR7+T1vGesKM/g9a/6P3Y0AwKcyF7D+0OzJTwXasUE8DXXEqWu9GADz+F/1DGxmZIgoKqHuJljJBWXRT8EzAvAredTXbJ8Et3F+jRTN0vOB4F4PKwidWJYidq7HCrWsiqqv3YWZXjmM58y68aG5lB6V57lhg5nMJC2LnFzUHmYevw7T/wL4+GW6SM/ffcg4D2uHnCOfgAt/y+va7oYXDT6B2z0a9cEtFYL3O8niJyEd86MD08bhhCxFYnjTQCa7TwEhlQvZ6img7xbSDwkQtjQzMkHcQE/XR6P5xb5MX70yryp78Z/wEUx4ZmUP45rELMBncHPa2kfRs6maPU0PnGxmZIOHrNQqj4L+VkSWQS4RbHvXGGqgcdaoaEY0MzKEP30vWvumv6ov3N5SVIdOp/YXVnn7GxGRLkW5ItDNymVqa2rfg/LaWM/163/7VLRd0EMf2n4NwtZB66W1oYG5pBoWv8h+ePFs7sNl7e2n9HY/5uglzM8s1veXP/ff4W6HYfTurFJyz9sInrj5aWwobtm5VYmjcyP/3b5xeYWP201hOHTZHR/ueyrwLcvNPswa0b90aSluZ6f3VsbIYELrAbqvXf1xJygirgBpFu+7/DzQe9mNfnYbPvO2uyP5WwfmxoBiWPUexI4xsE3CBGQ9wwaEO+VbDUg5tpj5/d+mM7/umxoRkUj4uSQPWE88GDLIlhQU+rqoNbbz1E1XO3z7VW2R+Lj5iyFGjf4puISSZzMW/fKvxf2LcKcavKfL6A56DQ+FRHZ06L5m5xbGQGZeh552XJQLGe+mXgW1X11Hu9NB+UvtY95+ei6JSl6OgLP3kdfaevy5IqusGfInLgF6hw6XGDE3BLhPkK3vcYu9Uk6n6QPOt33oW0osO3f4nf6Pz2FI5eL3/5xbGhGRRo7BPpewYtudgauC1jc7ZaLJ3qm8DtJ2ffmhkHeN99mor7jw3NoERZoe78DY/emWmqiSyDGBUvGS2W8EBVKPbXMtkoP0324TwG34o+qgXECtWm7bXL3N2fNpJo2s82cW//uky+XWz/wZJyXxq/Q7vkU348FCAyR4nbuSeKQ2c+NjSDwpGASruHYB6hlD1tZyRzY/ZhYbuz6oOX7vZzxksXc+Ol2ZdxP2HvEreypvbruFkfg6KxoRmUbvmmw7jCHvhW1+af8/rmVSy9em7ZN17TGrlLq9mt9JB9bGgGhR9w/Ljlkl1AOOv+edwg2BD5QiniEI+Ji3ubd9rSfrx6RbXniG/3P8uv2+32aRprMhcwNjZDgkW1oThEtbghUiXhhjEaxL2QWYm4F/JTh1topkG+bdidupPRl9n5x9j4oU1dT+UjzqKngG8IAekp3Pu+Bj2FwJfrSIRbR0//ilVVKWW9S+tLY0MzKEnWPsg3d6ekpwnf/MYkX/B6ioJ6at7LVKoA3+wzBm5saAYF4t5YRVJh+0Z8QyvG9RBZf0Nuer5hOa5CvqlVl2gsbzYKIMeGZlAGeCb5RsoX4VZyfsr2DVTW1ZHqdzSEVdBTzBd65OuBFLVXSzmkUsA3QIBxq6qo3kt6Sn6C+IZa/OrjN213HT0N3xaNSpKUCYsO7cl5cWr8X4nfkEtUvXtwukVdw7NK2iJnd4cFyuFszHwRlu5GiaVX+7ngpZu58dICQVHNjljG6MG3k0jzHyDP6qUZwub+wyzTZ5pK1WKpkEttRtq/5DIDW6/uWQNXuZAmxODk46csvkCtEsrRhdeivPF/ls/L6+aQmDSWj262NTY0gyL0tNsu9503RP8PIkojD1InhyvN9Yi2+3+86Sr7NbMbtdkI6+YXtj+pbXsA3EJ7adKeZG5luE1qWg4NzpQGhGhNbCl517AXrczhObv63FR3+T5hwdg8kyuYn34KVaLtuWLuIKn4izg63RFku/97az1ILlV5jMS+qyfmSBFtyW3yFX8tkXcCMN6lCtEw/ikDJQNyX6ulgt5f+X42YyMzKHC5uefd8o2VU6pmAIC+CXsVsMOMgnaoaJk5O28KYVcznbrGhmZQEosicbvEoWlFSiixYRvHSluV0YegZ6Tyl0yrTNQpamxohkUCFvUSCX4h9GooQy4asYq7PUh1ZCcSeQz2BrbjjFL8xoZmSFKWCb59liXZL+EVuaYmPGa0FGl0cLkBR5TXTD/WB7NvSvpT7mGzpDgkkIdYxoVyrniEarlQVi6V8FlQ1ibGqsM7/Qj2LX39w4tdhzslXQwegCgl2hqCC+Uyk+AfHwHQ3bttpw8Vv4n369PLrw8la2kwbLFuRq62krv2KDDR7beCqZo4bAloErx6HgJ9YaQi90Bayv6C+Ri2hShO4Db0Ms1D0A1QUlC+iTXF9R0SFklGu1ESMZSTij1k+rA21N4tu4yFJzZ9dyrbZZIboESrYqyq+O7ZWxIFGVGCmM1hKdZga4N8kZreZsLnqCYOXCdX4NeoXCBSxSCUApkMz6pkbT6Pb2O3Jn4RMxvEjY3ML9Lp6cgXbreExO+q+KvIU1yMljwnXQ0h0CPoKVwrNM6oguycv3LX9btKrJOkVMU8FBWQMtJjOqwSBwx1GFTy5a0JS1JBorfGvbaaK942sy4kqZRlSSqlaWiU3vKXNXV51dGIQaC6pMBT798brJnrFqnC5Xsxq0CkGCGOhqUiUnTX1dAq+nYcGLBAbhkbmUHRWasMT1y1kW8pgo9SxiAy3a9imDorosVzE2wZ/VRG9MSB6zxqmaq61vUYAlEC4cxTWrE43siEbrP+91ILGdFNGrW0n0PSMVqtItCiMDhRxypdQUAnNrD8NErnvHjyevT07VtvBaxlXr3PqmGylEKTFdzaGrfueFT+B7UinwRvHT1U+wJ1h8b4xL1NJb1jxpz1QpQJ+6ryXqd4ZX7/IRQ1qofoIm7b8p4hS7T/nZwaUkL4uTQOkdhNu/6WaRjRSivSVNeolSNTblU+75LiXWkOqugCQj+RsaEZlLijahQGu0tvFr0pZyXXSr9Qdfdl2ChGdL9NI2hSspKM9zVlKbriQycNaqSMfOWK0ykJUsdTYEQSHwQdtTAFlUWjIi43i8sYG5sh0cmrKvI1EL9QvyXUKqkKLJJS2epCf0PREuWKRZDknbCCRgTrhJJjQzMskZoiWIEV7p+ZMTzc4BAVSjrBbUhUOcm41ILNKb/Dm0aayyLT9gvZriERCX17oNTKuMGKFDHOQaV+OjmsjE/aNVuxngSLL2BsaAYl7cOlZQUMPu2x7GCSyIDP9d9P1sTK2ZW0ZWja5k1FlyvHeNbY6tB+1K9CA0MhTpCO1FdU4qT3mN1kwc3/TKgqDwTAYyMzKInBEWUKYbnrd2nMom40sduU34Oa3q3B0bXZiP1COUybpyxJsihGKgs5vyrsZV3G0inA9aUTG20DVPFYmqrQ4oHRuGDcQ2psZAaFkh1SHC2pR8ZPF3a5L0XNTXb14HJcJv8/r2rQeZ2+nRu4F0yDKoq4g/bY2AxKnC9knATcoKnft2jfhHJ2ApBItqelez/c+8YiUdFMvTQU3h6hYaZIhXDUSSinjLnOJFwZkkXg7X8MoUb0gvKyiEWiJ4VDGFDrwqRhw1sAsx33x6daEq+y9vK9ZoSqfqqt96+eahzTqC6/chIp89jYDAogpDAlLZgdYbD/Nmig9NvU6rjpvPGSdAlcnF4U9HVm0vp/PqkTsPCHKgoeJzIMQDpl0VqnJg0+VIhPiDNASmOb5cvu+5A6WCez/eb1Zt3L8tigp8SBzD2Ka6MstegsjQ3NsKR5lpI6hWk+eTqFkYSxLTj66+X9/vf0dmrl7/31eFuZurYGTBoXiGDaBh1XRFV4Mqmaimc3NjKDkrv2oDBUC/aZpQ6KC7fWOgprYGAVN7KqnxmFHEmYRiYQ1nOPlwJ8RbRKcn/aiVa4ergnHVJ61C2NtNMFzd4Be2jqE8HdOhQasjCMl8h1dRETLoKth3ZjQzMs3av+ZVV3M3cGk3FrbOZlLpJtDCqYbfQxZYnBUMQg7fVMC66EwIooqAMU+DKmjjgJq7BwHJr2dAjg8shxLDTxREuOTy4wkjdEqhqZI+xxqMXdQsRBMxOEv2kmQmqtY+by+YORnLJoxEmmp2yUCAuxAt0EFbsVRXq4RAQlnWQbqH4Z3LwjY0MzKJ3ifmgjYX4wD1ido4Cs07IC5wwFvfATmtmUQTEUhPEBTVkiiFjFCAsY8k7HEBUU5GuO7zTHKBSuBU+K7ji46o5bkJN0PQrfogKlYJut0/lhEvMjqcMWTeGhIXDW0SHy2CKxpSJO8a5jbGgGJehMuC24GbPbnwwkSoILEP9jQSPEF4WSTFX6be/7i7MRjADLVKwi08eVwElLuPYorPLjnobBAtLR9XiU4qiEAtNN1m6E3nfLMYmS3lgLfGPwEgM5dfsWGxuKK/wQNVurKA0AFopbEwVu+cUl/i7Dn9cqUIdzhZw3VSKao0zjEQLfuGmJeNXiVrW4oYlX0kKBlupQEFCiTcBD5wpL89CCpbn1SqkUZlZPmYJRaDM2MkPSZYFfg3xjsCj+R05gKY0IErJWx1XgmxY9AYuwsRDBYlz2FT9Pz3HKorOXT3oacYNuFnipMEATZETHAbilJ43ja/meguZzx09xbGyGpPvGruSbolKIiqKsuFYSAlqI0FBPRc1IYcar0yyuoCPDrtyvZ+LtC+nYuShk3wLJop2iOlpwHQUkU+AXQvCHAzAVQlP5HMys+OzYijNhSfAil8l6SverJR+JHPQp349Trqmh1VMtPKhnmozmdOdv5xFMHLgu2xTjJnFVqYbJTYo3B/uWnjPAUQgzx3uISJLCkQkLjtfuL9i45gHjZhNjPUXOQNOBn2ksxGPoUpQ4rNASN0BJK1dPL7Adxs9TBntTrOjaK4wfFcNYPtOkUZPTXtf6Op9tt9vF5tjemrRv2tS300e7abbfrUKzKJgtZfUrHHY+uvtVEd88DZvLYf1t4AmY5nbat7sf5tcluQ5tLrN1m5tY83M+uF+ZX9XkkSNNsWojOii8/gE9BWrVFzHA5X5lhZ8w8WEO1IAbaJoxfmztk3X2LTrTeYnjzhrXpnhv7ty0uL6ZacOGMYTiDkfQfryfBb4pGFScm+aho66vgct+Sm7bx9IQbkAm1RxhYot9Hc7EXbxg2Dd4m2kvEC3LQz1x3IBu0MEt7U8EfsF8JKvLN3oNAfvFCdm2ZwTcfPhh9RwPurcEMoe0T8SucVWPVdmRWTNx3Lym+J6ormPW+vDhHzt00nJxb+HLG25x9rGgOVFOwKbQgXW9+CC2/Fi2b6Z5J5zcMCt++GR/3kVo7Xfr6TVX/8PtBbhtOzvxeoh3Y3jhixdja7tEO1N53OoTEPG0cn7wNofbe3GelkbyXRwVH3Zk3OoVDfT4sbJK12gJT5/tmdQFt7lX7QPfDj/Kbft5+7Fq4rg589bsQZUab7tbx7oHyrX2Dedtmn26SVCcOzyCBruSphuXxVGm8UOhGn/Y3iqsI5n6SnBcnbvwL5BU5WFFZ4Ih3meW39Y81cZnVwainbGhGRQNA5b5u6PA07RAVl5PC8Bmq8LLtjWMbnY1GiF9bcLbpPbm5v0Dvv1ZkVbuly7NxQnHDj42837FwuDS75bo/rfhtouJR72++tZ6OZcZNVyKVHqN9k37e7uJESjru9v7UCuYg+K7EaVfP+UJ4EZkW//AxLsGSLUyWGt3Z/JDR3/UuGnRcB4GdYQpi9M3b+6jyQ9g+PWttT/ByPM2v/vS2BkCkebopZC5wvGMYWyItz9iCOn6zxrOtAqWriio/87kccNx3hYUW2hmR4ubGyKp/BF00zi3ztF6r7CoO9Uzidv8DzXsQOi22Dv52KP4J3CxXk+38GoqF5Wm3S6jnZ2q3JwRUanIQtwLk26uoqEEYNika+3N21tN2Tz3l5B82zWIdt07iPK7XRGpKe1/AL4p5zKrdNZNqvfW3kHEE/nBTJx36z/oMFk3SVAB+tTkJjr9qK+A29lSlc5TdOrtpwr5dqol3QpvvIhvy8h+Ad/u1vPtlI7jpqHe23pHnHnyYr0X6OfbBXDbUBGB+lWMDcwvoiEM+Gjk3cOkkwsLseol0lOYUvIHTOBHd6gjz7fZV21xhliYecF+u+/rjmx31iBucePCxPW0vUA3jqUjlSjz21e36mytn7LjXEs1rL0f/TRm2+ViwG3eBhXgjMu1N4/mDmqd/r6x6IRCIze/QTNlcSbbjcfoLDw/bYgxfgyGpCusuXnH+OPWtGE+MOhNzDeMhcxg5RuYDXCmKF0o13KOLIWTtEV8U1gtf4DhQ4yfZa21M/S8i2bjVrihYn1W30Yb4WbNyrOztWs4UzO9x9zea21syBd8B5EGZolduLUwk9EczYHLtMzlS0wOtRFDEEJb99jQDIq7zObgWfXiI3tX94bZD92EuQjOHic/VPYTaiLuxtBF+sO0S1BP6/XdRnXy5hsOb9CdVK3O4+PxZ/Jz8hqJW+hJMn2+UcpdblaNtXWDNVk/AJRqoAKy/bHttkbjNE5Xf7/oMc/ysC+DfMPCHhTvNm3qiV9nR9dvvwF7V/re+d4YbCy3FhbYO2LC4i2Kn5bUBQ+H782cimyYeBl8rWi935wpBsPEy1ISKg47GtZTcfiuLswSd9nO3zYUlSwF37zuFmFw12nzDXxBfeq8nnbDOw+3y7KnqSPdYfK4qqy0itsB6fCjKcxn9G6SO+7sKsrsT83XJTRdTFxPMT3yxTIxStn2KwS0ZhkVyjlCpcOEbL+M8AuQ6n4S1m2kOItx9mdCPW3zBXM5n07mQeIQFPsl0XmT8YKpRUtTOXuREXJymHJTPFcxthCB+BUmTMMenckj/ddqe92ddyZ03RwbmkEJ/RNMc4M3JKvFbhllT1pZdd1DRe77yDPjAp1qcZhXTtfqcBApraphhf8lu7x/QNvFvD0TvKer3OyeCwfX6ny6WnSoetqBiOaeDqb1l6vV0jSZscNNbZerla4ttzoXfJiKDrNqZbkPjaYVmLSbxqza3WucYdxjZNodwLMry4WksaEZlA5AxJJCvgKN99ftQU9HmfhM2JeXj4n6wyraXTyzgrpZYw8xNfX6W8KeqBtffn28qMI7NVrDm9NRDyZejHsfUVVXhwSOer2Fjk9jQzMoHSj6+hz1SMJKlk4PMewfp6n/F76QqkMnRHzJXwfkxsbmKU95ylOe8pSnPOUpT3nKU57ylP+y/A9VAvWldDHN2QAAAABJRU5ErkJggg==;" parent="1" vertex="1">
                    <mxGeometry x="-563.15" y="120" width="403.15" height="210" as="geometry"/>
                </mxCell>
                <mxCell id="24" value="" style="shape=image;verticalLabelPosition=bottom;labelBackgroundColor=default;verticalAlign=top;aspect=fixed;imageAspect=0;image=data:image/png,iVBORw0KGgoAAAANSUhEUgAAAOEAAADhCAMAAAAJbSJIAAAA21BMVEX///8AAADwuADY2NimpqaGhobOzs6MjIzExMQ3NzdxcXHvtQBWVlbvswBLS0taWlr39/dkZGS4uLjf39/v7+99fX3n5+esrKw9PT23t7eZmZlqamovLy9lZWWDg4NDQ0MQEBAdHR332pr7wQCenp4lJSXzyF3658DJycnfqwDzxVL77M2/wMLV2N//+eTxvSz7+O+mqbH52I7714TywD34253436lEMwBcRwC/kgD2xD44KQD/+tT0y2nxux2zigChfADoyomNbAAnMUHRnQAjFgD88Nh5WAD0znNjdkZAAAAGi0lEQVR4nO2ae3+aSBSGGfAWEQVFFOMlxqSxjdu4adrurclut+32+3+inRv3wY2C0uzvff5iGITzMuecOTOoaQAAAAAAAAAAAAAAAAAAAAAAAAAAAAAAAAAAAAAAAAAAAAAAAAAAAAAAAAAA+MExas35vHnlu1UbciRGJMSxqzbmGHRJnP/hMI4TAsl11faUTpOk6FdtUcnYaYHEqdqkkhllFJKqTSqZ86xCo2qbymWRVVir2qZyoQo7Z1zYxGiJtDqs2qZyWbAha1Nda9biWrtV21QuC5pYBhohY5p0PG3DFC6rtqlcFh1tQgbXZK4NaT3jniSZeictDanCLrka0+C7IMS3T6BwTZ9wftxHJOgSzSEbdkRjcNA4vkLv1NmsQ3zvp7d3lnm//blJxZajcEcFMTl1WdGhSfTe0nXdtN5tWSweW2Hz1ArHvvZg6hzTes+CsYynt1obMclODaOR7BKBcMIZaTm4sfSARzEhDsq4sSh4m9mOOjt/wlUomYRjqFs3bnllW43fqq7oGdROuUCj00NDe8VH0br7JgPorIw75ys8CrZru5rKMzbcJ99bpnV3w9oiDzQUV+7LiRU2z+udxkTR4Yi8sv1wK9oGt6uMnYxdCt34y7Y9LzxMXUcHJtbyvF3RO9GaTT972sss6UlZE3KuwkE9tga1R12ZvP1ZKjPZo3GsRvaYd83Z0Vk3oE1bQ4fT69fc2qaVfRq9/Sh5pi4kXhWTp+UptEdTfp4rtPs93rjQvGE4e8pR8zuxlMDFBvqjiXZBW1N5nJMda9m8bchfFE53SoWNwDiu0JGNZTtWHwhNZ4lW0McVNnzZ2fJ4a0kPnY3agQ1V3gw2F4tOikqFrYTC4cXyIjgx7gVHPM0507OLmMLlMlIYKnbDRu5wKEd3HTzpGArD+wdxKHL3iL/OEUnI6EUKpa1hl3CFKT92dmQN7unZpRr1Af76Cq5w8hS2Egrr8ZcpJM7j5qkVavOw2Q+Uqk1YqDZH6UsWzrPeV1T69vsqFFVx8JNdCrWlvItN8itAOlGMFsq5fcqkE5biinCIwvNnKxwQYWFnRxCekU5DPbWzzZqeMkb34RCF7WcrlAFMI6qdZwD1efeaKIoAjbtAu/Ay6sgKg4kwNwjpL9rrPAks4vk7Gqn7n8WxFYrdEKIoYwQT+pAxUVWq8nY8rxWpT4+tULsiO5MFS0H5WYg+t1l0LXx0hdJNc+KQJpOZn7+VQIudMZ9y8gb5GaQVGv0+n37KUhh+UlL7Ke2eDHeEGRPHft3bV1dEWmFbbs6UpJBFkazelPvL9Ly/IJ6qi+NIhQWyaVqhI9/XfgovYhan50NDVm8dxdPZdkx/l/lU3rxkhWcHKQxTRUqhvE4suhS+uOZeqNIuoQrX+R7wLNIKyb4KxZJqGP08prAT5HmSeA0RzIlnYYmbhXlojdt4uMJRUuFArbCZVRjIEK+IzKn5g808oZDZJ9K8WM5mt84m6bhNEkymfhEvFQ4012wON54r5B/wwno4ucnOHXMmG2JnM4EcUBpg4SaEuEEm5//HzrpUSIyDFU6706x9VKExlMv55aQ50DbDmWhdOzSUvK5cfHfa9biVfJCkSR1nY8/5Zcs2+5zk+vI5nUkybcqvI+qqVAt3DXy+E3IICnmEzRZ+rLWJS2gGywWOLDaD/u46uuOVG/sJH01JcpVkk4+/0JMXeSvAYIPIyJ9PdmMoGWhuI8LVvKhBH2Svw1YQpd7E6Q1HPI/4fY4/CO/NbHNbIals87BavWYi1P8O2gpHesl/4rs0dX31K3dwVfdvv3MnuH/U357aspK45N8pVh+ZxLGi/8GkPvyHburmm5PbVgafLPmtiQ+iaqPqUV/pOr/IOr15xQm/pclBVPzJK/qgaL1EN43M13myyS7httEl5n0VJhbEjBSunpjCTD1wG7vE/F6FjcV4o8ck/kmm2UXuXzGFurWtwMZifIrbv/qcqcuMv7/ocYW3VRhZiLu4/frqa3IN5c7I11Ws39QrMvNwYmmE80TEP6I4LqvUP0cKzZeYaW5SClk+vRalnyHq/tBJTf1D1dYexINlmWYUi1+C9UnwTZK8DiLwBY6fYPv2283lq0DlP2K50u3NenJ59vRiU0yK2+90LK13ayP+b0+vVZs7rGAzzW/VmVYeHy7V4/TdfLw8sSkAAAAAAAAAAAAAAAAAAAAAAAAAAAAAAAAAAAAAAAAAAAAAAAAAAAAAAAAAAPhx+BdO31Le9yzxEgAAAABJRU5ErkJggg==;" parent="1" vertex="1">
                    <mxGeometry x="-552.83" y="190" width="60" height="60" as="geometry"/>
                </mxCell>
                <mxCell id="29" value="" style="shape=image;verticalLabelPosition=bottom;labelBackgroundColor=default;verticalAlign=top;aspect=fixed;imageAspect=0;image=data:image/png,iVBORw0KGgoAAAANSUhEUgAAAOEAAADhCAMAAAAJbSJIAAAA8FBMVEX/////0kI3c6X/00M3caL/0EA3dqr/2Ek3d6z/1kf/zj3/zDv/2Uo3b5//yjk2bZv/3U7//PT//vo2apb//fQwdKurwdenucz/yTH/6JT/8MD/0DV4n8T/4n6JpL5zl7j/+etVgqp/pcktapz/0zUoZZX/2Tj/3UeZtdHu8/fW4e0jcKrF1eQpbaP/9dcdb6z/45seZpz/2nz/3Ib/5aj/xyLo7vS7zeCeuNJHgrVljrT/2Vr/9ttnlcCxx93/0Cr/8cr/3GsaXI1dg6b/11L/7LX/5Hb/7qv/4JL/4Vz/0VtJe6f/zUr/3YP/4pz/2GAC0q3xAAAHe0lEQVR4nO2cDVPaTBCARaAKCFQBG43VKFGBBDTWALVW0LfWVtv6///Nm8vlO3cJCTTbOPuM0xlHhrln9nbvcrfp2hqCIAiCIAiCIAiCIAiCIAiCIAiCIAiCIAiCIAiCIAiCIAiCIAiSPf3xYDLt9U4OTE5601110Ice1MoY7B587igGHZch4d3x4ST/mupJ50LpbHp5Z/xQDFHteDqGHuMS9KedC7+dT9BgfX3dkFShB5qWqaIE9aijV5CgHQ+gx5qG/meWXzCClJLWgx5ucvqbofkZEFz3ot1ADzgxsYI+w1Kpeww94oScWIIdo5A66ciNYMmgewg95kSML6iTcmIseP2eEhdBgparcrNLnZQ7+qt6ERdBEsRcpeKBOUk7X+3fjUkbE0ESxDxtcKih4izlY4W1DvoFS9oEcsgJoYVGcTZk/U68YL07hRxyQkKGSrxgPVfV1DK8s39XlcgiYwrm0XBz0/79c0wE6/WcGtrF9GC4gGAuDTc7nZ6qTjc7iwjm05Bs2xRlkSmaX8N3m5ytTEgwr4aLCzbzacjbjIYFcxrDJII5M7wgx4fK0PgJUuIINvM1S9VdLidDVg7mzjACdciIYNMQfDOGE40j2Dx9I4aqxigyruF832Y+gh6qj8GudevC48jmhiHYbDqG3+WzM9nm4xzay2JwoFx47138rDtVtFTqdrvMIuMaftzY2qBUKpWi/OUWWs6g/5V1ObHgXtSNoGPoChLH2TW039pd2C/ZQh8wrHgFSRj3gAV7F0lOtlkLfZNhWHEEi0UZNorLCrINvYLF4mwOKDhhCCaYok2vINewKO6ACY7DgkmKjF/QNfT7GYafwAy/hotooirqM2xZhpWgYKEwk4AEB6EQJsjBpt+v2QoauoIF8QeQISOEiz/RhwQDhh5BQxEmE1khTFdFTUHLsOg3LFDDfRDDk2AIl8hB0/CDa+iLYKFQvQcxXNFCbwu2TieOYUCwUBYhBAOTdKkiY/JALoHviyzBsgjxKDX1dZMkWSaaTMHWKfnWb8VgDhLBsgixdfNV0tRbNVewdWR86Y7MFCyLEImYOgcZRcaZpCM5NEeJYLlayF5wrKQS5OSgwX/kWy/lcA6ahmI7c0NVWa3gg3lhzCgy1FCXMjecKKvMwdaD2dUwD4bQFqyK88wNp6xOp/gIsnOw9UD7MF55glUh+10N62oi1UJP/Fq0H2pf5glWheyXC9oys4IcPH1ofaBfKfEFq8IlkGHMQl/v+jgN8fBwemT3Fe18Ywpahtk/QJkLfmQE65r2cnQ4/RDBrup2eUvf/Eno9TMMf4MYRgnWtRs1SaPavhwlWBWu/poJj4NOZLehdpOomXL+GpGDYIaRgneej+5E0b6dP36UuesgbAwjBJ2uxNHT95/nZ2FkL0XuVsamBmBIWkbjBKWn8/Pz9x62LDb8R/fxgjUh+xPFHrvRiQjal7lPfr1lBGsAq8V0yBMsrZsfaP8M+MUK8pKwRgyz39NMhjzBrlllpPchYgwjIlir6dnvS9UhR7DUNf/+M6lgVAQNw+wPasYKT9DMwr3gFH2/xBQlhlLmhv0hW5AWUumME8CtdIKNRuaCtO+XIUhfKgiGcGupKWoUmmcAQ2NTwxKsv5A/8pIwpWAD4OFpbW13yBKkr77cplsIuYINfQ5gONBYgqUuOfbcP1+tYEMHuXxiCtZNw6cke7XIdZAKAuxKCYdDhiA19BWauDLKe5zwhnAOYuhOU++ZDNcw5RQlgiBrBeGFIRgyXD4HjRBCtdTcDcOCQcNVCIKF0Ko1gWNDv2HK5yX/FAXKQoKqMd58YRmmeCB0BYEKKeUo3NLsM1yJ4C9AQWOeRhkmm6LMZcIQbGyDGo67wbsJ13AlgvozrKChWOr67yZ4hqkEBR2qG8rLkebtQXANF4lgaB9T9enpVxK0nYn6onW7jqNlyJ+iooEshhD86ELt6hF6grqMp0fHDuQQwzEMCYqPO23K9va2+Q8b6d+xY2IbhiMow3SorRzLkJGDb8twI2BYpIb8WxroYSdgb4NbRguMKkPLjJ79JWh6TMMFlgnfMghw+ZIeYphwK5M/w8SCeTNM8cSbL8Pg20vcx6Vazdmr5dEwVlAov77WBGszmkPD2ClKm9Wu9bwaxgrar8LMqSJAU1B69ioLHG0Lf+yPXwnm7Uu+DGNWCVJk3EtPEsTGGzM0C6izD5V083IiT4ZP8gLroOC0bt/q4KeGSZnLMTloGjoPUn+E3Bmuyb4AsncytbL1YUmg54Z/Ir/yH+NSXmAvKjxL5LO31u2E/i+8e78wO5ViKILhc0NB//R4fa9TQZBmhCW4ncULklXeoJHHEBrMZ1E5GDzaNgQfoUecmJHsNYwRFAD61panfT8rLHgFqv/K2xS1GL3OxEUuJxrw/71Haka/RVG0j51YERR0/TmPE9TL6MeX2UwUPbcvVeomGHa1q0cJeoCrYOd2//LqtVwVBVE3EYTar6sf16PsXyr8y2y325JJO0/H2wiCIAiCIAiCIAiCIAiCIAiCIAiCIAiCIAiCIAiCIAiCIAiCIG+M/wG7SH8NnarAtgAAAABJRU5ErkJggg==;" parent="1" vertex="1">
                    <mxGeometry x="-810" y="124.34" width="60" height="60" as="geometry"/>
                </mxCell>
                <mxCell id="30" value="" style="shape=image;verticalLabelPosition=bottom;labelBackgroundColor=default;verticalAlign=top;aspect=fixed;imageAspect=0;image=data:image/png,iVBORw0KGgoAAAANSUhEUgAAAOEAAADhCAMAAAAJbSJIAAAA8FBMVEX/////0kI3c6X/00M3caL/0EA3dqr/2Ek3d6z/1kf/zj3/zDv/2Uo3b5//yjk2bZv/3U7//PT//vo2apb//fQwdKurwdenucz/yTH/6JT/8MD/0DV4n8T/4n6JpL5zl7j/+etVgqp/pcktapz/0zUoZZX/2Tj/3UeZtdHu8/fW4e0jcKrF1eQpbaP/9dcdb6z/45seZpz/2nz/3Ib/5aj/xyLo7vS7zeCeuNJHgrVljrT/2Vr/9ttnlcCxx93/0Cr/8cr/3GsaXI1dg6b/11L/7LX/5Hb/7qv/4JL/4Vz/0VtJe6f/zUr/3YP/4pz/2GAC0q3xAAAHe0lEQVR4nO2cDVPaTBCARaAKCFQBG43VKFGBBDTWALVW0LfWVtv6///Nm8vlO3cJCTTbOPuM0xlHhrln9nbvcrfp2hqCIAiCIAiCIAiCIAiCIAiCIAiCIAiCIAiCIAiCIAiCIAiCIAiSPf3xYDLt9U4OTE5601110Ice1MoY7B587igGHZch4d3x4ST/mupJ50LpbHp5Z/xQDFHteDqGHuMS9KedC7+dT9BgfX3dkFShB5qWqaIE9aijV5CgHQ+gx5qG/meWXzCClJLWgx5ucvqbofkZEFz3ot1ADzgxsYI+w1Kpeww94oScWIIdo5A66ciNYMmgewg95kSML6iTcmIseP2eEhdBgparcrNLnZQ7+qt6ERdBEsRcpeKBOUk7X+3fjUkbE0ESxDxtcKih4izlY4W1DvoFS9oEcsgJoYVGcTZk/U68YL07hRxyQkKGSrxgPVfV1DK8s39XlcgiYwrm0XBz0/79c0wE6/WcGtrF9GC4gGAuDTc7nZ6qTjc7iwjm05Bs2xRlkSmaX8N3m5ytTEgwr4aLCzbzacjbjIYFcxrDJII5M7wgx4fK0PgJUuIINvM1S9VdLidDVg7mzjACdciIYNMQfDOGE40j2Dx9I4aqxigyruF832Y+gh6qj8GudevC48jmhiHYbDqG3+WzM9nm4xzay2JwoFx47138rDtVtFTqdrvMIuMaftzY2qBUKpWi/OUWWs6g/5V1ObHgXtSNoGPoChLH2TW039pd2C/ZQh8wrHgFSRj3gAV7F0lOtlkLfZNhWHEEi0UZNorLCrINvYLF4mwOKDhhCCaYok2vINewKO6ACY7DgkmKjF/QNfT7GYafwAy/hotooirqM2xZhpWgYKEwk4AEB6EQJsjBpt+v2QoauoIF8QeQISOEiz/RhwQDhh5BQxEmE1khTFdFTUHLsOg3LFDDfRDDk2AIl8hB0/CDa+iLYKFQvQcxXNFCbwu2TieOYUCwUBYhBAOTdKkiY/JALoHviyzBsgjxKDX1dZMkWSaaTMHWKfnWb8VgDhLBsgixdfNV0tRbNVewdWR86Y7MFCyLEImYOgcZRcaZpCM5NEeJYLlayF5wrKQS5OSgwX/kWy/lcA6ahmI7c0NVWa3gg3lhzCgy1FCXMjecKKvMwdaD2dUwD4bQFqyK88wNp6xOp/gIsnOw9UD7MF55glUh+10N62oi1UJP/Fq0H2pf5glWheyXC9oys4IcPH1ofaBfKfEFq8IlkGHMQl/v+jgN8fBwemT3Fe18Ywpahtk/QJkLfmQE65r2cnQ4/RDBrup2eUvf/Eno9TMMf4MYRgnWtRs1SaPavhwlWBWu/poJj4NOZLehdpOomXL+GpGDYIaRgneej+5E0b6dP36UuesgbAwjBJ2uxNHT95/nZ2FkL0XuVsamBmBIWkbjBKWn8/Pz9x62LDb8R/fxgjUh+xPFHrvRiQjal7lPfr1lBGsAq8V0yBMsrZsfaP8M+MUK8pKwRgyz39NMhjzBrlllpPchYgwjIlir6dnvS9UhR7DUNf/+M6lgVAQNw+wPasYKT9DMwr3gFH2/xBQlhlLmhv0hW5AWUumME8CtdIKNRuaCtO+XIUhfKgiGcGupKWoUmmcAQ2NTwxKsv5A/8pIwpWAD4OFpbW13yBKkr77cplsIuYINfQ5gONBYgqUuOfbcP1+tYEMHuXxiCtZNw6cke7XIdZAKAuxKCYdDhiA19BWauDLKe5zwhnAOYuhOU++ZDNcw5RQlgiBrBeGFIRgyXD4HjRBCtdTcDcOCQcNVCIKF0Ko1gWNDv2HK5yX/FAXKQoKqMd58YRmmeCB0BYEKKeUo3NLsM1yJ4C9AQWOeRhkmm6LMZcIQbGyDGo67wbsJ13AlgvozrKChWOr67yZ4hqkEBR2qG8rLkebtQXANF4lgaB9T9enpVxK0nYn6onW7jqNlyJ+iooEshhD86ELt6hF6grqMp0fHDuQQwzEMCYqPO23K9va2+Q8b6d+xY2IbhiMow3SorRzLkJGDb8twI2BYpIb8WxroYSdgb4NbRguMKkPLjJ79JWh6TMMFlgnfMghw+ZIeYphwK5M/w8SCeTNM8cSbL8Pg20vcx6Vazdmr5dEwVlAov77WBGszmkPD2ClKm9Wu9bwaxgrar8LMqSJAU1B69ioLHG0Lf+yPXwnm7Uu+DGNWCVJk3EtPEsTGGzM0C6izD5V083IiT4ZP8gLroOC0bt/q4KeGSZnLMTloGjoPUn+E3Bmuyb4AsncytbL1YUmg54Z/Ir/yH+NSXmAvKjxL5LO31u2E/i+8e78wO5ViKILhc0NB//R4fa9TQZBmhCW4ncULklXeoJHHEBrMZ1E5GDzaNgQfoUecmJHsNYwRFAD61panfT8rLHgFqv/K2xS1GL3OxEUuJxrw/71Haka/RVG0j51YERR0/TmPE9TL6MeX2UwUPbcvVeomGHa1q0cJeoCrYOd2//LqtVwVBVE3EYTar6sf16PsXyr8y2y325JJO0/H2wiCIAiCIAiCIAiCIAiCIAiCIAiCIAiCIAiCIAiCIAiCIAiCIG+M/wG7SH8NnarAtgAAAABJRU5ErkJggg==;" parent="1" vertex="1">
                    <mxGeometry x="-552.83" y="124.34" width="60" height="60" as="geometry"/>
                </mxCell>
                <mxCell id="11" value="" style="shape=image;verticalLabelPosition=bottom;labelBackgroundColor=default;verticalAlign=top;aspect=fixed;imageAspect=0;image=data:image/png,iVBORw0KGgoAAAANSUhEUgAAAaoAAAB2CAMAAACu2ickAAABC1BMVEX///8mJzD/S0u9QEN9NTsAABYLDRzT09QDBxgHChofICoAAAsAABP5+fm5ubsAABAZGiUVFiLNzc/Dw8UAAACnp6rk5OWFhYkdHimWl5o9PUXg4eFmZmtZWV7/Ozvt7e7/QUF0dXk0NT3/Pz+Li47/Nja5LDB5KzL/Tk6srK//ysp8fYFFRk1yFyFPUFYqKzT/4+O/SEtqa2//cHDeqar/hYX/kZH/q6v/trb/ZWX/1NT/e3v/8PD6U1P/3t7NdnjWkpPmvr67NjrEWVulfH//oaGuioxvDBjJamyKTVHApKbJsrSCPUPhsLHXxcfi1tePV1uecHPbXF6pR0uQQ0fqU1Sshonahof/paUVYasIAAAMNElEQVR4nO2ce3vaOBaHgcTG9wtgsAPE4JBSCoFM0nZ6STOzve1O253Opbvb7/9J1pJ8kWzZOIlJyvOc9y+whWzp53N0dCTTaAAAAAAAAAAAAAAAAAAAAAAAAAAAAAAAAAAAAAAAAAAAAAAAAAAAAAAAAPxo6A99Az86w67/0LdA+OXRrzXXOOw6IUb7B2ngHfFXqqROH/ouEE8fHTz6R33V6c5YFGTRtkVRENZOv76a7xFrs9lY7ejLkdVsNqXBg94Q5urRwcHB26uaatNnsqg0ExRbvdhH09LCNmiRVB0TN8V6+GHi3Vsk1b/qqcyw7WYGS3Pqqfs+kcIbFyKpuhJuh/ngj9xTZFQHNbnAmRoZk2WLsmhF5qWxfr59MQ2p43K7g5bK13CTVslJ3ICLe7+nK6JUPS5wRholmiPPMbrO4MgkNiYzwnRV17Xsu19tl9BSNZyepdi9YXKygxqg3vs9vTuIpbq7CzR6SBc7MBKvrjuKhe2K9oFdGel556vtFEaqRns5nlHur4POyjVe7dnzCnbyNDaqai7Qf/9n8Ukdm5C2ZA9OkTBNgWrp/kmVoW6prk8npx+2BS3nqVKhVtuk9T+ezf9ZPLh6SCrJyx5eosMWFeqCVFket1qTyc/lZd5RSm1zgfqns/nh4W/FBTZIgXH++BGKLqixCaTK8n3SarVOWi9Kivz6lpbq4NG/S8p+modCHc4/FxYYmgXNw9JobfY7SEVxddpCHD9+UlSCcX/lLvDzIRIqlKrYpRpi2ICAd6Zn23ZvkXzdKpXuP/gUplSqNjor1nm515MWEetNgVg/ZZQqdIGfvxChDufviy/nhGOSsuae8UI66FPbcZzFAAeFCwcTiYI/40+dZeCG0jJidbyLoyBYT51ho4CON10FQbBa5ooMUc1d/LE9WwfB0cih6vaNQfi7FXMMwUjVT+8ONcDBDXDZBtyNJ8etiOOXrzjnM+6v0AX+/tvZYcTZ1+LLoaiCmifyy6ihClippo3pke7QQ8MTtdBi2ysTnxbTHtBnlmC7SlNRXNsMeJkPfybiEnjqbW4WzEkjrBrPwTvhLE8Jq3Ht3jLyDf6yF87TybEp0+eMVB10dz380enxG3BXWinHl9fZszn3x3eBX/9IhDo8/FJytQVygG55zOlk004CMQIdZTms8LwaJThSq1owqSpF3HSylXoCW6sc0Cli5JfdKXpK0tSk3cQluiL1Q8umO52VSkjGJtxIpgH1SPVhkmo1OX19zp7NuT+eCwyFmqdKlQQVcYOM0jtysi3VGKm6vaQzY6lGWixS1NNKjzUsfS1HJ1wrymQpKtV/kVSOylTihvUveuRQfMykFGakaqdhRE4qrR6posAiFuv4GW0yHPeXc4H9P2mhQv9XZjO6gO+91Kw8zYr708L0KKkUH8/AJFPtqb1IqjF+7l1Rba5Xtkly9iajVWARa1OD6XK5NmXsBynjxlItUR7PVjfrlSrhOqxxox1e0xKkYLwyyTHaexdKZYY37dINqEeqxmWLYXKaJjCuee6PdYH+e1ao0qAiZIo6TTnaOs52sBkwh7BUm3C4tt1ZJ6zAb5O+HmGlhFEXf/UXAf7eo3zgmAxtqziZ1cXSWWnSkVjV1FVsD99ZZ40NQzBWSlOYko6OjmmpSyhygJj6I0A6sIjFOokTGFz3h13gO1JA/5gRqjyoCOmbxLeU+0BusI6larpNbcYY5QJ5P8Xqpkdm5BpJKQP7R5VOkazRQ99LHhg8h3BdN32EZliX0ELlVPIlOkbFr6VS1T6vQrRyRAmMAveHzeppI05NZCgLKhAOWYOTAqfUCxZK1TTZ4A07RCVgzBSrZyfSaMiGzG7uV2kJLFVo7FSJEfFgAh2grJEPVJP7vn+pnk/yYqEExtci9xe5QJKayDD/tO1yA6KVImpjp9iHF0plz9iCM9zpGYdKUopxn3aWtqx5+Z+lBkKk0uigkCxAuczKTBvJISXi3b9U56d5qdCc+K8SpQ4O3n3hCHV4WJKpjVnEEbFia8powZ+xFltVpiASXsq6Ux2ZBBVo6t3sKiUeSpK6sFQWm+4fK/nYDZmnmFh1UViB2YlUjZc8qULe/FU4WIXD1d88peYl6x8J/bGZTF9c0WzOinKCHKnsjHWgTubMqdFU2y1bg/WRxMkcGkuVmf0skS6Zxc2RQt/B/VtV48VJgVatUsv6xpHq7PdKV+yuVSudbFraapErUSCVlJncoiFFzMcoQy3fzywq7fEMzszc4+TAULbISjzwA0ilcwarRKxiw/rpC0erqtfszwLTTtRSZCvT3UVSCew+NB1VYXICFCFflgFblRY7X2ybR2wJLFVmuQZLlayq5R0gFZzvRipuYJHwn0Kx8i5w/vEGVx06Y1OyYrVMdjSpKBWyHm5OEa1/ZS2Q/h0ZifZPquvs1KqiWDkXeHbDFLLeHWy0KMdmr2jjqCgV7uOR38/iIynEnFtF82bDGVy4AjboPZSqMLCIeFwgVtYFzv+4xbWHXhDlceiBoaJUOF+omHnwojKTXPI7znQlqoJoR0mf/ZSqOLAoFyvjAisGFTkMkguSqeiuolRebvMnBR0tGmNRImsg0ei4r1Lp5R6wWCzWBc5vfQMDPM0RUhdYh1Rpp3YDyU2PK66o7utY1Wg8KwssSsRiXOCNgooMOOcmph7rJlIpIh81ntPOokm34tqiIAgBWilW91WqLYFFLFZ+Tky7wC2Z2nJQyEZNY6qOVXjyYxQQdaNHUlm2uZp6xjCKfPZWqsabKlLxEhiUC7xNUJGA1+NSbW4UAZbX3Merg5boMT/dX6m2BhapWEUusHT5dys4FZpmrStKhTuEuwMqhWSIRpl58v5KpXNztnyxWMNKXGDp8m90FQT/VB+lgtJ3XipK5bMCc8GjVG6X1P5KVSmwiGHji8gFzv+7/SJjAe3f4Z7CTbuxVTUC1CHdRglYTTmbuNjXxBLiVaXAIoIJBiMXWCWowItLGnfZg4TdydeqUiHvVppCJ+vOOcMju3l3LVXNC/YxFQMLjljEBZZsVE/AHWTNeKfwzpRRpiRTgitVR+McDMt6yfOAPWvuRacL9z6k0vLtrIOfqwYWebG+VQ0qyIYlkZMpxPZGJe3IU8/+mCdVYxNq7OZiQE81lSlJ1vsotNQyPxviG9m5VFtG0dtyVT2wyIqFXGCFoKIRRWNKkCvrZbMVZG2cWezjS4X3uMgZQ+0joe0oMkQvn2RXJIOdJ5bwillJbv9OvL5BYJER6+9te8pi8BjfVDbsgqt/QayN6k887LMzJr5UZG+KwPwLQR+vW8YbX/DjIdK/01ckzbRLqXQ82HJeT6qD3C6zKkRz4m9VMxUOeRNYG6VR23BANni7TF+tUG+LU9TDkb8skKpPdsccpQ+wg9cs3bib2nirp5tecKG4TXvXUpG9GfYF1YAaeXwLqWKxqgQVGPIuadOV5NHMc5zZyBbI8qKiMC0ycDbIFQRXiKL7AqkaXbJ9WdgMjE6ns5iKZKeYlVQ3whcQVl5n2G93Z0p4XlrYu5aK3FbYAEXgT0/uwvfbmBURq/QFOZYpycjhNzJC4nUJe5N59kZJ0jyKCYqkahi9aNu0KEuySHybIqVTAp8seSi2rGmCjHMX451PgcMgM21A4XtEt+by+ObDFWLS+t8NrmJI+ZULxZzmQo1VvEs/2uZSKFWj3cxu6JePmD19G4s9O959tiJknTSAsxx9V15cPp6cHh+fnEwmW0ULi0xOjo+PTydvLsteUM2jz0T6f3vQH/eMeZs3B9G2JpssZug913VV7tYW3bOpGl3JzbxhpV+oqVg23r6JKkv+ZsIwXdfKpBI9yXXtrFSi64rJdkEV3U+yYwl9M9niM5U4DXtH/5Vydf7qyYsPz59dvmxNTpAWOZCSb16+fv7h+4snr85vM3XQFyPyb1i2KGvSyivYWtSfBbIkyU0SGerj0Wg0Lhii9cVYFCQR/buWdcHZED9cioIo2qKouQNcBa4svm4Hfcv05yI8NMr8vZWDjiWPAa4iVnuIv2Wu6pMGKNxJf83oV1fn59fXryKur6/Pz6+uapnY9bvo7ctFd1ham+77la827KA1qsJwa2iElzPqHzbKCRvw4C8tAwAAAAAAAAAAAAAAAAAAAAAAAAAAAAAAAAAAAAAAAAAAAAAAAAAAAAAAAD8g/wcxNCqxaHkv7gAAAABJRU5ErkJggg==;" parent="1" vertex="1">
                    <mxGeometry x="-778" y="500" width="176" height="48.75" as="geometry"/>
                </mxCell>
                <mxCell id="31" value="" style="shape=image;verticalLabelPosition=bottom;labelBackgroundColor=default;verticalAlign=top;aspect=fixed;imageAspect=0;image=data:image/png,iVBORw0KGgoAAAANSUhEUgAAAKoAAAEoCAMAAAD/p5rXAAAAclBMVEX///8AAACPj4+FhYWLi4vLy8v09PTi4uKYmJjq6uorKyvl5eXZ2dnc3Nzx8fF6enqjo6Nvb2/R0dEODg5ERES5ubllZWUcHByvr6/BwcEUFBRqamp0dHScnJwaGhp8fHwvLy8kJCROTk44ODhWVlY7Ozv0dcfzAAADq0lEQVR4nO3Y63aaQBiF4VEjJw2ggoqSpuZw/7fYpMaIMBNpu3cGV/f7O+vLI8zIoDGuwjKqi2Q3+rZ2SZFFZegE2QvK9Y/vM1622ZdBb2iY+WKeepz1gs7XvqHvre+vQtPaN/JUdmUZbH0Dm22/kg7i3p/bO6Hhyret3Q/H9lr6htma34x0NFp2pXPfJledb62Zb5G7uEU9+Aa5+3kpHcwXv62sKa18a76ualA3vjFfdzhL73xbrjU+SVPfkuult3JRPy9r4NvRpyN1UAc/V8cD4ZNvRp9eBv5IbRbfyv0/roCBnfxd7Yf/pDr19sSKfRv6Fg/3SN3u3pS+CX0rTe6b0LfcRL4JfYvM2Dehb2NRCYnKSFRGojJqUBfL6QBb7i3Uz58FhtXEQr3zjbInKiNRGYnKSFRGojISlZGojERlJCojURmJykhURqIyEpWRqIxEZSQqI1EZicpIVEaiMhKVkaiMRGUkKiNRGYnKSFRGojISlZGojERlJCojURmJykhURqIyEpWRqIxEZSQqI1EZicpIVEaiMhKVkaiMRGUkKiNRGYnKSFRGojISlZGojERlJCojURmJykhURqIyEpWRqIxEZSQqI1EZicpIVEaiMhKVkaiMRGUkKiNRGYnKSFRGojISlZGojERlJCojURmJykhURqIyEpWRqIxEZSQqI1EZicpIVEaiMhKVkaiMRGUkKiNRGYnKSFRGojISlZGojG6cOjHBADOPFurQE5WRqIxEZSQqo/+auppMwzgOq8n1P/2z0NTn6fmgUT1DR4Op28tT0RY5G0tdtk9wS+DwsYlwwzpSqDUyD7BZ264UuQZyU6JGFfZTfIGaX5o5apTl9kOXwL2JQZOe7FJjnkD/IDbmgJmUu6g5Zv7hbdQCMyp0UUPM/AVuj7qkxmDmv3+/gBYrmxq/j3pBTNq4qRvE/OOuxawA8lXdAmcFLmkAGf8xDHIMqFzUCjF9jPzctYtaI6Z/3jPEZd05VkCwAwyPzvMSwLgHOxVxcjs05k0B80apTZoiJl/sgwww8NVGfQUMzi5HIpbAuitdA8Y+t2bOADNHRWsNpJBzddz+/JAj8KpsjixXiJnz7r2CbK1Rkn+cBsMcsaYcLxeoV4ukWCwKjNN6TX9fCMgNQ7aZ2aUGs2GB7Z1QA3sRwmT9YeFcuvcNPFVbn36XuwvyVvCvvTh+VmgVZp731+rR+f7bKahqyBvR33Sonad057Uto7pIEKfNnu2SIotK9/X8BYQJYHbh2vUjAAAAAElFTkSuQmCC;" parent="1" vertex="1">
                    <mxGeometry x="-100" y="319.06" width="70" height="121.88" as="geometry"/>
                </mxCell>
                <mxCell id="mw1qhxmh3SIuLwi_OL3V-1" value="&lt;span style=&quot;font-size: 22px;&quot;&gt;mini-PC&lt;br&gt;4 cores&lt;br&gt;16 GB RAM&lt;/span&gt;" style="rounded=1;whiteSpace=wrap;html=1;" parent="1" vertex="1">
                    <mxGeometry x="-772" y="339" width="164" height="82" as="geometry"/>
                </mxCell>
                <mxCell id="6" value="" style="shape=image;verticalLabelPosition=bottom;labelBackgroundColor=default;verticalAlign=top;aspect=fixed;imageAspect=0;image=data:image/png,iVBORw0KGgoAAAANSUhEUgAAAWcAAACMCAMAAACXkphKAAAB2lBMVEX///8AwUtTPfINyNjpAQBSUFD/akAA715KoP8H4/RNS0v+/v/g4OBFQ0NJR0dTUVGDgoKko6OZmJjm5uZbWVlmZGNsa2pBPz/t7e309PSKiYkAv0L+aD6BgICvr6+SkZHEw8PY2Ni5uLgI2Ol2dXXGxsZIpf9ONfHPz89xcG//ZTcAvTz0Ph7zAAA2MzNKnf8A9lVHLPH0/vr95uTuWVPF8vbrOzN+4er98vAuztz9im35ysbD3f5KlP1QU/SLi/aWl/cV1H61ufoA4FeN4qxrZvRfW/TP9N/wdnHrQD3vYVryjoL0l5D1pp74t7H72NGq7PLpJyO57/OT6O/xfnfX9vn6UST8p5RW1+P8nob+f174wLvpGRK+OFCHaJZ7cKapUnbPL0WEzdSpq9axhHSjzf7dGh5ej9nQIzDQeFmrkYSjW4NEucC3R2fqbEx0qafHgmvQ5P5NjPpOd/lRR/P/XSZugL1UsrRVfPc0qf/p7v1gapRkOyx/Ozx9e/U/aLFgR0KipvlGQWfHy/pAWmsXyYk7Yk1POUcgorAOp0ggvZYF0KAG3uA8ctAjsp4A+01HWtoI1L0AxF8E4msD1rczjb6m6cBU74Np8JaD8qli1ouR9LdP0X3d+eq1lv8TAAATRUlEQVR4nO2djX/bxnnHQdOQLIB3EAmQACjx1ZJISrZk0q5r17GSLLYsp3aSZoubLk7SbGuTbGtXO2raaFvSLPOatl62qpvS2dL/unvuABDvONC0TJn49dOIL3jjFz8899xzB1gQMj0ryfKzPoLnXOdBly4d7U4HR7u7CdD2xYsXb968eeHChVdf3d7e/v6t269def38JcfeT8Xmb1z+ztPY7CTr4slw3b25fev2O1det4w+Vtxv5PPfHef2joNejwLNaP/g5oXtW1fGG1YI5unjLJz/QRxoSxe3b78zLtaAeQo5C+cvcIAG1hduQxR50gjyJmDO/+VYDv146VJs6PCyvnXlCXfGME8lZ25HW6jPP8GuLMzTyTmNo4nubo9mahJxvpOfZs6ycOnVNKBPnrwwGmkHc/6NMf+E46JLN9OBPvnqCNFjiHlqOQuXtlOCPnkrbaL3Vj7jTECnaQxTW5rE5rcuuzi/+fR+yKRLTu3ok1dSZNNuN+fzU1ffcCltY0j0Gt+W/W6ebs6C8FepQd/m2azsd3M+/9bT/ikTrfSNIQ/ooJvz+ekrQHv1dBwdwDz1nIXvPwXQQcwZ5/Sg7/wwoYg3CGK+nI1GCrdScr67+sNYaiFuzl/O/Jze0aurP4rZWoib8/m3Mz8T3U7H+czML38UyS0U8xg5H+sTls7RZ2ZmwNGhv3jwdhjm/NvhS5tGOmxyq2uO8PMmR6+lAr24SBwdWlUKd3PU8GAb4XKqw1T19Wbq3zZRStUYrs4QR38vZCsRbo4q1/WwqLfSHKUq4eYIP26S9E4KzndmwNHfCzg6ys0R5bqWLoq4lHxosvPn+HOW0zSGd2Zmwhwd6WbCOSwOF5FWxGVj+IHaMlyvVWcd2f6CcjYLheHWjJY6lt9/hOJ39JkZC7TH0dFuDi/XGWVUUkXUpm9K69Wmput6rwvv5Lqir+tSkTZ6Rgnr60hrCsBZajeQrksl1hySVdZ1rf4UoTwNcTeGFmcv6Bg3h5frlpHUkmuoR99UkSIhTcFYAn+WENJ6ZYwgqMhl8qYsYVwHzqKmS5pEvgFL12ExDen1Y5bsXUnJeWb1rx3QsZhDu4NLaMkUmjoqwJsqlspd02hjXJUFdV0vyoJcxDqBXtRx3ZALS5JeAM6orprkDSLtZwEjcHxJQt0jQ/TkAk+8czcd5yHowXdjMJP0OShV1EnIMAkreEc4L8PfBtZUwSwVZbZEUzAquAZftKT1OsQN+qagwVpFVIbwYS6h6vHqvsicjh5yJqDP098Y5+bw9Jlc9CZZtcFgVVGFhtwuRjTTkwvdZhHOREGxIni3aUA7SN8QtPOUr2kYhlnS02Xhk6ArPLMcXZwp6AQ3h3I2eyRCmKbcZVd9VV+ilixIiPjaKFZE0txRziJedlay8zqZci5LSlkjUiTxWNmZ6srdk2eJYjnfGWJepKATMIelzy0klWtESwqeF4BzzeJMsKok86g06m0FOEt4GH0DnDWm3vHjTBz97nvv//iDOM6rMzMeR/9NAuawdIMEZESFRVGFuNGz40ZXqKFyi/ZK3HEDShteziRuyFTHKzrb+tsV0PsfRHua9AY9jv67JM7BdMPQ8FKdqogBZBWLLbg3qYQVlSTWFG0TEc5GGVfhjSrSdtDFmWR/GgXcaheOjs6YJAs/2ThFtfLeT6M4z7g5Qx88AXNIWtdGTmVjCRMrQ15XMM1ljOdlk6QYpmx2NZqRFBFumqZak1DBx7klIdJfMdt4vXGEhMYhYo+fXGWYT22sfPhRuKXPeDnPJHIONoNmDZdla5dthFvAWVd6FUlaJ/jr61K5WpNoOygYCEuVmob1hic+Q37XWMe9Rg3r2jHre7sxgz77WSjoMzNeLX6cwDlYrTM0qe28rqA65BttDWNcoY1eXcMIVZplHVINoypihMvQu1Y1ifXLq6gBt0CS5XSkNY5ZTdqPmYD+cRjoOz7Oq3+fwDmYbshqYQjHIK8JZ0HtLresT41Wt0XSZVYwIrn0MiskOasZBcNabvnYFZKCmAnofwgBveqLzzP/mMCZYzIScE4+vpi3x0bkuF/YOOXXys8CmO/OePKN5HTjMsfe7X7Kcy+SUwXcTB39rt/RvvC8+PMEzFz3tFXXp4QzcXMY5lOnPvwoEDY8mFf/KYkzz1zRQj3VANZxVXjQsED7woY3qVstJWHO5nw5opgjOG+svB8TNpL7gvm3M86WSGyOdDO0hZ7szhM2Vn+RiHmKb03xiWC+Fx6bbdA/jQgbHG6e9inmHsW5GTh/6g4bi+kw82R10yASm+9djefsjhzDsLHI0QTmj+pOWFlttaH61zZhdhh5MWlDhhA0CGUohW5cvXqV1kRXgqBdnRSrE7g4k5jQPWHYMFtEfLWL5aqCaTVbLwqCqpC/kpG81tHqhY2Vq/evb+6c6JwA7Wxe/+T+xikP643P3jtr1zassLH6cVJvmympkyIXQGE1CrOsE/HU4ox5XRKZcAPGZMgLaaJq0hA0Vu5fP9HpMMgg8rqzs/nJfbevN1Y+8NQ2Fn+ZVDuylXSDZkkCaSG9FEMSFUXBHP2XJSTagkGBgjhpnCFo3N90MR6q0+9sfnLVsfXKp2eHreDi6se/4sQcNqPALXWd4QmpIhnUoxyc67oCYDFdvjmJnAXhrV+HQbZZn9j8ZMMi/dlHTiu4mlgI5bdzXbeMGMTCy9kow3Ko1i2oagEm5U0cZ+LmzX40ZhZENn/NUH9q2Xlx8Rd8kZnaeRBfvzQqVmDFxeB3bKA2kdcy8q0/cZyF3a0YNzukd64D6ZV3z569AyGDL81gSiohdbFlZ6kcSCzkZoOonVDGg6Fbsr7iSi8mjvPuVoKbHdRb90+t/PO//OvP01FOis6yUCOMJA3Cqz5ywrtEtsHmhlmaNM7y58lutkmf2PwCY/ybVJTzl5NyZxMuedRekliiMJrKZG3knq4+aZy/5HMzU//fsITR16k4v5k0utSGTEEx2nDljzxoTTm7w3sE52f15NqvuN1MQ8e/I2Jo/hYwzzGOYlIjNwRVg5asnbR4UJQcL+dnJJmjDXTM3P/iwSv/8Vv09dxpfsxJuQZMdIHAvExnI4lSJeI4k35IgLMazlntLjeby92jHh7njxqdzhcPzs3OvvK73MO5OW7SHOX9Bm0FCcguZNG6n0yrUqmUneaxS971WlAxqleXyOuqKRTL5G+FdlK0ylDlkH63WqqImEqpFF1fmdVypey9klo9snHP2TXmK/6FOCULuzvcZt76/TmCeTaXW/jDHBUP6suDRCOait2CmRrpYyP/rVclXZJQzd7MPHmnNwSzISIMXfX1rkG77CwBl9wK+NksiYh8qoBECUkwjZ1tt4XI8orL47K5RD5ab7uvo/o6OZDeKJwF4UXOqNHf/HoWKM++kiN6OGeRTkJ9OTFoCEKT9pcpjzq0hGVfiQ0SY2nezqvnsUJieUGzM27UNRQxWm7OrTItgCjOf5Bm78oE83tullNhB9K8++ghc0Sj3W20yxk1+v/5MqUMds7l1h7MOTodc3tV/jRHNVSukp8o1ShHGqldE8qpGGf7B9MYXu1hm5XO7WdVYT14XUfk/+y1c04bSPHmlHV6TtzZDz2f0mjj8S9xce5sfvNfjDKzc27h4ZxLp8NZXz49x1N0hvKlojfZG9ph8RWTgpxFYIgR6dkoCiFVr83Pz1cphXJ13lHNy9lg8VpqLBO26vI8PQ/2NEqhi+A7116X6AWDXOG4SU6FtDTSJL7dLS4z/7dt5tnZBcb55TmfAhHk9Ok5LsxCkXZSrMNvQ0uIvIEjhDP5gBWMVDrBjk4yt/IN2ZY/rysh2lDaDaq8TAt7dhwwIKd03f2ssmBEOphO5CDHoaBg/YVHf8Fj5/7XDmXLziRy/NEP2qLNxN5xYZY1ljyzn0NbQt37Y8I4S5ovK5GT8ucCw+w6hS2NomSRQW5IHoptq5atO/41y94zkUbXeepH3wwxO5xze6GcPeIbqerSMpvjMgq157k4wzgrwTJIAucirOe9LZyGYNvQTQgcTlSQ56HRgIDmNBYtf2ThF0cr2Nl52YV51sacW/vDeDDLDQusHSexGztVCGc9pNWP52xWhq2tI2gYJetmOIPa1z4rUPSW5snFhZ17BIr+lpJfyX2UzpYHs2Nnf1M4KmbaiCsubHKFFZNc+VQY55DeXDxn1tr6Tg8tpUrWtiCFcZq9JjxDoTuPXVlmTwqmQnwyEwt1nZ0/uTFbrSDjHB85eB9wSQdSdFfUrLubRYeGL6/TQpLyeM4wCqD4oyv90L5bGXbsjJsxwhBL0LJra6MVue4lunnT42YP59zCgzFgpi7xJHK0KqG7e7chnMNqIPGcg6dPsExue5gOj2O2BFS0yEVl/aGCYiK9xTG9ErONvg+zK2xE5xypMLOOSdP1ibvbwjQWziyr810GtEBoN4RmT3KavWWyE5LSw7FICqwkw0tFH6m4ISSFjf43XsweO7u73yNjZlmAt6NNx/nc3a6xcQ5kC3To1hlShGNhxRVonCXRZIVxNsJjKsHEnlcn4jn3P5z1yYd5YS8cNP/DtIeFI9n6H/vM8xyfsXBuAGfRt4qXM80w6W38cAgY9mgge5tQSiS7HWWM4IWEsLHzpwTOEaBTPOO5qbMKhVsmzfRcl/hRcWY9JriQACoLZtB8VMDFcD3g0WpICeHZ3Q0MC880RAf633NzaeY512inQ/MJ+iGu8djxxY14znTTJFrLdGGWWtAkpGWn3yONEcsJJdGtgJ394TkUdJon8BeCdUxbUtVdVxhXO+hbxdMOWrWkCqs4WakFlDkgrkF7LVVGqyHFd7r7H/rtHMY5UFFKNWu/jqNBD4vuY+FcDM3raOM2vCOXjk8aQldyMksYuoQeYxuFDEDwaTc+Ovd/FeAcghlitDu9S/X8fdOqVAYEgKD0xhYbC+cm7af4ik+05UNOHw/SDMjd6A6t1AIyDtQSYKR4xKklXyWE598nh2cGOvc/o7mZPiBQdB5S4hLF7zyEZyycW9hV5bZFTe4aCQCouCGTLUn2OJmqQ2QxaVVplLAhJxU3+v/LyZkEaTvtSPmvo9BSRVhOSn+/Y5+xcKZNnncYShDghEra8D2kcWIZso1hMKHQabljxBk8Lyaldb7OYDRnYumX//hw7uGD/VQHQFsh/+AJFSVEUmhGZSycaV3QN+q0TAcV3A/tgKxCgZEUpWBHLTjnWs8/ephCCfM2+l8OvuUIzzbptYW1tbWFVKDbwYqwJZk63a7Jj4WzFaTc0yTVsugNG1YVRPLMw2ZbGbmGJMg78enGl4Jw+C03Zxv3fooeEy0h+Qe3mZjTrGt3PJzZgB+uObTUCv2g4T7ggjU92FVApZOlRN8UyRTaTcQsyF5Hc3DOpXB0gbKMyJWoqaypEmPiTJM4ESt1eHaHWShSk0qi5zxDLYmu5fIuu00gdGiBR7HpBsVMQB/+OSXn3No+r6FLCPoAEdPfaAUeF5zXY+DMLhKyVbHc65VFK3X35Wq0BfaOahfYamjEiWJxve7+S9ZCHkdzcc4tXOPbPx3ml6KeAsHqpYyad55MFSuRnJX4eYxt7EzyYJBx4ImkLXqfjHcyDEszR+sMxo5Z9V8aPnJ58Odz6TgTR3Ptn/URogq6Jp3IwX5biU4gd+Z9QcUhlDPUjD2c6blyPSRaKFQIacWa9yVKuBa8muiQIfZ8zrqSo00oiJsh03/RdWiy/O25dJypo5ODR0HDGEXPOukijPUq/boJL50T0tYxDrmLBYo/GHvCgLmEMPI+otFsLsF0JLiRU8e1ZshRtqXA5tUe2U5lxPs9oyfxu9xMy8KD/zuXjnNujS90yLEzvuXh17JnSTlqveAXYUua3XaxVCq2o+6wDdt8/JHGKnIMtv954GCt0MHNmTtGT4GiZnx53Mwky8zR/JyJo6flKUdJipj3HHAzFXN0dL975NDx/Cu8m+JpAh2R6ASOTsM5t/bomd1wM1G6F8a5fz0KDQ0daTgD6ExyaHcwPGhYKzwOH0+JA518y8TzrlDOnetxXR758blUgSMDLQDnYLe7/7kZ3b8gebT8OKWhKejpJh0ymhLvZlhHfpzS0BloOdDt7l/fTV7tcUpD59YOpj10+EatEt3MlB70dMdoWfi8n9rNELz3U3Keekd7yhsdLsxUNxbSNoYHh9MM2s25v8mNGRydFvTeNDvaNekrhZsFGMs6yBzNK9nFubOzm2parzy4tpaO9MIUO9qZvdHZSuNmpsNH6Ugv7N2YUtDO0006J+6NsPpgf28tHegpDR3yJuPc2bw34j+NsX+QxtPT6mh55wncTDcgDG4c5PhRT6mjzR3WBI6KWaBXweG1R9yoF3LT6OjdJ3Ozo8Hh/sHeAhdrCB1TR3qXuvmrsWxrcOPaoz2YLZrs6GP7rySNql1w8wvj2RZhNyC+vnawR/okCzH9cgA9ZbpHMI/HzUzUp4PDG/vXHhHcMBcaDO5nDjF6uhy9uzVWzEwWwsFgcGOfAH/06ODgYG9vjxJm4p9N+rzo3hM3gUHJw78O8sPDwxuW9ok4HrOWKbUyppkyZcqUKVOmTJkyZcqUKVOmTJkyZcqUKdPY9P+FWscTXIB3TQAAAABJRU5ErkJggg==;" parent="1" vertex="1">
                    <mxGeometry x="-570" y="410.1" width="410" height="159.9" as="geometry"/>
                </mxCell>
                <mxCell id="45" value="" style="line;strokeWidth=10;direction=south;html=1;perimeter=backbonePerimeter;points=[];outlineConnect=0;strokeColor=#0d0d0d;rotation=90;" parent="1" vertex="1">
                    <mxGeometry x="-490" width="10" height="650" as="geometry"/>
                </mxCell>
                <mxCell id="46" value="" style="shape=image;verticalLabelPosition=bottom;labelBackgroundColor=default;verticalAlign=top;aspect=fixed;imageAspect=0;image=data:image/png,iVBORw0KGgoAAAANSUhEUgAAAOEAAADhCAMAAAAJbSJIAAAAhFBMVEX///8AAAD39/f8/Pzt7e34+Pj09PQEBATw8PDV1dXp6emFhYVAQECzs7MiIiLm5uanp6fBwcExMTGXl5c3Nzd9fX24uLg8PDydnZ3c3NwTExPJyclNTU3Pz893d3cVFRVFRUVubm4qKipkZGQcHBxmZmakpKSRkZFVVVVUVFRLS0t6enpJXtB9AAAMVUlEQVR4nO2ciXqqOhCAgbCqiEvFrWhdWm37/u93M5kEWYJCW4Fzv/m/e26rLM0wk5nJJMQwCIIgCIIgCIIgCIIgCIIgCIIgCIIgCIIgCIIgCIIgiD7BWPqr4/q27zLNkX8dNwkvh+XYM5H98fN7Po3+B/IJEaLJ4WjqeRtO3a7b+Fu2w02FdIrRKpKP4h8kWXgPxDPFCcuPf1CTzHAms0fiZXgP/jVFsrnQ0EMdmulpX9Ou21wfrr+53iBP4dplg2T+Is0zz3H7r+iRTfSqGtrpKclIe8brusNm1wNCeJDGBtDTWH0YRbkzQ6VGL+dsF07P1cgMtsha4HD9opqebzkzoqN8Cpfta6ZDer3ujqDAMwoo1Bcy4122fVXI0PgHdykfRWJEw5uI5o71uTtmPMwLKGMihViVT2WMKf3yaOhebqo/97c3Oqc0PmxCUMRAGuJQczLXqXvGwyfQmb+QXZf/F7be9HpE49TBzJkwtE/84lo1iIik3mIDnsf6NdXjotWG1yVIDRTcJsgUS4ndin7FwKOKM5iw2vQjV2sPe+I2FVB2OseQn5M7V72j2obyGfifSotL5/lNbkasLGwfKI3NsVft7nhGZsmngMkAV+NcafGlZ9n4VHXBa/rsfdl4667vD/HB7NIvEmUKR6tPlpqa6PAWyy74zeTBpUs8TWU83AGrVKA/hsq9YLYLSgkdqYlHVycF78kvn0mP/PW0JjdlYCob9RZptF5hL4wfXv2Kdqq6HQvf0qBxeFaLG8Jm2YHgcuWLb8+YuT28mFu4uHguPibf5g1Plwu1zy33TBlNIuV66mQnOJLizyIZlkaN2z6kqJPiUB4+jdCBeHXaJxODa7lmxe/kdi3hzcuc9pqBuy4hLd9DI5h5lSnga9dKZNzxCbm+DBZrBu7Hw3y6rm6jH4TD1335st06TQI/uhbxoqwJPqzFOK9cf9p8Hi6TcJqsowEnitbbOFwt3vWlDHMUWnAzNfKK7jfg2UTSrBL1pKclv9OM80VKxIwDivjZnXTAFwp4yXzF4sPPhPPM2SXI3MiSPTvu0k5lTJgV21Bhfw8ohpZEFG5MszsJmSEdXlD4Wo4YXqqFyTMWg33zu1it2qFq561KlUMWRksj8i22zDfW8eVaNfEk8Ja71daXY6ZN8T5qbNXdQGpT0YCh6D8q6XajLfech+vsFtLPo9NhOIkDWypNhoaS25SPsCMlMhzblZNHJrvhRXuZHlR6sSMy44j+1OlotljaX+mvS+PaNrjV1cRyQB6mMrqPX7b0h8hhb3mIu23eez7EFZrBJE7RPRyiPIcTClIeia/E97Mm90qqHkrY3B7+DNus6m3veg97D2nYmrIcuqfTT1v5Gz7QCdhlH4D9s1nhGkdbmhHvPF8CaA8m23QtJxwu6iPQXVaJqOmXXA2/ua13sy0gizOayTAZ3Jr5d4x8L5oj16on+WxkMLbKR2Lp/ho1Kal8LGHlH3oyOOuiq4ZhofS92e2k3xqUj/iVxvJcZOlBVyw8VPnYe7czKp2pgVPEtQoif0li3ob2BUY/cKWG8VJ51aoqG3gumIQsdYd+FqMPVeFCeS6/eSN/xXu16WCDmpZXhvpwcbthu2mN6ja6bjj42SNH36zNXV4r1ftE3GpFYQHVa3pHjDEjXYwZVrrtJ3InqicyHDYEL9vrDoVS+FaJq/1bXO2D7oF1SVN3KKg+9DxW1VEdO9S16R3tajFkzG83+R5Wu9LVz3qNFEOXnMnJ1nYXEr1Xu7f5z1IQ6bts3TEcjt1b0/H3YFaqzVsuP5PwnqIwS2o3M/1ZUft3tDtEXP5l0+utlX64quNvqV2wfyzecTabPXplQdBuSfHvJJydN+fNrI4a25Xwz6x0P9vMxrPN+PGZLVvpI09Ts2s1uq5dT4Pp/sS3c0TRwPYxGVi4di0iOxpEHHuAwgWac1y0mHajBda7iz3DtZwGEV/MdzDGXIu56ZyjplCjSvvtRvyFVgzXslTWVh7KFschzHId8cOxHHY3+WSo3naztnLyCQ12XQvqG7B85GRYYkLDcSxcRWnxn6AuPNnlYlkC+BLO42OLzfgsMm84kn0gnWTeOGTLFHB5O10XdOjEJk8jz19cJEdo1bJgXZP4xXKFugwpHJfScR0Gx11nbR7P3sYUR/nJWXHkoqRWBZRDtsxAHgQEHTI2Nc/mfjNj0LuYJb62UCb4BHZsuPAwuHbhJ+M/+D+2FTrc8H4ptOtmprTi4uNsA7/gFxgIAIpyHBB+bI65gI4B+gPt8lYrUVBCfrID/Y85/Cc/bHHV78fmfgQPBVSdXc/2oxLzL1GVqNSBQ7cSpugwGKyPNxsbZAFrE9LBLyAuVxs/GzQkvuZPAQV32QQk9E4MTrGs3AponLloeyUmhouLcgi8XWCEXELXEjo01xAMHEsqkv8CH8RpvM+CcwHFif+hhAuQ0NyB0MLYDeYoKTERaHuSFKPeW+ryoLcJc7RAvfu9mTD0k9Cl8hJCZ3SEP10vtiAJSOis4a1Ec87tVvRDx/B9H28uHY12bPxE5Fz97dV6FJGLIeLz2Awd1wfLtFzfQisFKblrAb0KT8ks42yeh1uuL0cYbzSfTeBlIeGVme9KCSf1Vhv/NbLocDMd9DXQ7IM4MgddwR4D4DPB9iCgwD+W9jKHibA6HiYivxGngKSOOMPyZcS4VqQQz+ZN/N1vzZEGBdxIZdXf4lFpZxxlOvd4Sfxfg1nNpnJKs174+jJTdlv9lGrcRUYDrItmmpI0SEHSV4ZF6nmYaoQ8iaNdvHtxlMZYapTMBmolyn5xRfFhWlif46L87Q5/Ebn+WVPCHTfoOJ85+YS0pzj70OYqVrS/sk16CU31BLOBehXT2NRxil21t4sbw+0aTxL8CTjO18QpfOz15opcjXyoSVzPDlK68bV9TwrIx1/+4zIbqLc+5KRVouAawjRrl9v0bKQSi02QeqlXddCbqeI1bDtZy8DU62m6da9AaWUvc22oOg3szNCIld6YKQk56U5I2bh9af3lAt99wg9OtA0vu89jvq69X54W8xgGILvHpcfRx6CjXQikJy8pa4qNZoPp/HR3lxqYRN7el9DDgPn20cm7M3JGzBwUvIHOQeqBtKDWpAXn2vaKGrAbkXR5pRd3XLkC/HHlG9aGDR+eBXwH3diptEGVU0EbcCh7n1R0L/sWcfW5L5POQoZ6h051Evuj4axUcHvzppJds8W4f4z0hDMRmKdXbQuPn9+ryTRYD7BEyCw7Wifxx+X0hgPbyz3xZpOOtx5QzuZg2Jeyy9icLtPozmv1zIbR1x0zPfRgDzC12QAMElT3UnvwVI958q2usOwXVF/XEupd4SF9QbsOK72AnYuGMFmxyQD1CJlu1pvzs/U6bHklWzVuLuydUCjHq9dIKP0y41UrofnWl50xbnvvHOWGClyz0kE+GmDw/F1lDhp6sjMGUy/L5rZAcGta2hqqaFaFhOaoF5u4MrXq28sVjHb1euKnGH3pAykY6vPa3YxVeQ8ruRp6fN/dT/F19Nw4GAzcu4nYBy2K0bCJ7fpKRwAyjMzv7aJkwIy4XzDTTMcGEfsgIexd9qFETO1Stfpe4VS8MQymfbiJtEDflWqxJ0Ej3YqMc5A1KBnIZ9VKwPL4Muus8KW3IDv0+upF0OA+L7k9eFl/k9mYbvpGoLQcpZPKJk54sIKhtiJCDQa3zYbe1thM7256ukTDFma4UOLI2eycFvsS+hlTvYm37QDd7yJbqQ8ZapMQMbhMdzHz8+/oS0NtS4aHhJknfw2MNGcti8iwFuyBSfuwpgN3jsi8NRNkN4LpR+gXu62pFFMUH0LcLdLTGKp1Fe33zGG0EHMcw9Kz6GdfxAnSWw9Kh36HvA6CvToNztik5ZrczlK5oNGT0A+4qdPI4YW3FtqHwsFEVcrzM1Z5LfbE3QDRu7LTHOdLAIP2gWYfIggoIvPLpQfspkWw6F7s3qZYV04pVdR/LZyQfCmaogoaXgfvyd6DNzOqLvTqdiuHiPEGDokVbhSoS4ZGj6wUccJXvTglaRdYEJ1o38sMcO6iVxpEIIBFk4r6RIZvscoE/tn6V0gD3Gy5dxpUWNNh5cL+zWmV8yxv+tV5Qc/6oAYrCIen/H5Rb7v5dKCUhzAjrtBTsuhPLLwLG0RrIGp/mowgCIIgCIIgCIIgCIIgCIIgCIIgCIIgCIIgCIIgCIIgCIIgCIIgCKJP/Ad+zIG0/3V64wAAAABJRU5ErkJggg==;" parent="1" vertex="1">
                    <mxGeometry x="-160" y="120" width="130" height="130" as="geometry"/>
                </mxCell>
                <mxCell id="47" value="" style="line;strokeWidth=10;direction=south;html=1;perimeter=backbonePerimeter;points=[];outlineConnect=0;strokeColor=#0d0d0d;" vertex="1" parent="1">
                    <mxGeometry x="-160" y="120" width="10" height="450" as="geometry"/>
                </mxCell>
            </root>
        </mxGraphModel>
    </diagram>
</mxfile>